<svg width="28" height="28" viewBox="0 0 28 28" fill="none" xmlns="http://www.w3.org/2000/svg">
<path d="M13.5484 10.8387V13.5484H28V10.8387H13.5484ZM27.0968 12.6452H14.4516V11.7419H27.0968V12.6452Z" fill="white"/>
<path d="M14.4516 9.93548H15.3548V9.25445L20.7742 5.08606L26.1935 9.25445V9.93548H27.0968V8.81006L20.7742 3.94619L14.4516 8.81006V9.93548Z" fill="white"/>
<path d="M28 23.0323C28 21.765 27.5642 20.5226 26.7725 19.5332L26.3769 19.0386C26.1118 18.7067 25.7157 18.5161 25.2903 18.5161C24.953 18.5161 24.6368 18.6403 24.3871 18.8553V18.0645H21.6774V20.7742H23.0589C22.7473 21.4823 22.5806 22.2523 22.5806 23.0323C22.5806 24.3722 23.5593 25.485 24.8387 25.7013V27.0968H22.5806V23.0323V22.5806H18.9677V27.0968H14.4516V25.7013C15.731 25.4854 16.7097 24.3726 16.7097 23.0323C16.7097 21.765 16.2739 20.5226 15.4822 19.5332L15.0866 19.0386C14.8215 18.7067 14.4254 18.5161 14 18.5161C13.5746 18.5161 13.1785 18.7067 12.9139 19.0382L12.5178 19.5332C11.7261 20.5226 11.2903 21.765 11.2903 23.0323C11.2903 24.3722 12.269 25.485 13.5484 25.7013V27.0968H9.48387V22.5806H5.87097V27.0968H3.16129V25.7013C4.44071 25.4854 5.41935 24.3726 5.41935 23.0323C5.41935 21.905 5.07252 20.7986 4.43935 19.871H4.96774V17.1613H2.25806V18.5997C2.01239 18.6841 1.79019 18.8291 1.62355 19.0382L1.22748 19.5332C0.435806 20.5226 0 21.765 0 23.0323C0 24.3722 0.978645 25.485 2.25806 25.7013V27.0968H0.903226V25.7419H0V28H28V25.7419H27.0968V27.0968H25.7419V25.7013C27.0214 25.485 28 24.3722 28 23.0323ZM3.16129 18.0645H4.06452V18.9677H3.72535C3.56819 18.7975 3.37581 18.6737 3.16129 18.5997V18.0645ZM2.25806 22.5806V24.7746C1.48129 24.5727 0.903226 23.8718 0.903226 23.0323C0.903226 21.9692 1.26903 20.9273 1.93245 20.0977L2.32852 19.6023C2.422 19.4857 2.56065 19.4194 2.70968 19.4194C2.85871 19.4194 2.99735 19.4857 3.09084 19.6027L3.4869 20.0977C4.15032 20.9273 4.51613 21.9692 4.51613 23.0323C4.51613 23.8718 3.93806 24.5727 3.16129 24.7746V22.5806H2.25806ZM8.58064 27.0968H6.77419V23.4839H8.58064V27.0968ZM13.5484 22.5806V24.7746C12.7716 24.5727 12.1935 23.8718 12.1935 23.0323C12.1935 21.9692 12.5594 20.9273 13.2228 20.0977L13.6188 19.6023C13.7123 19.4857 13.851 19.4194 14 19.4194C14.149 19.4194 14.2877 19.4857 14.3812 19.6027L14.7772 20.0977C15.4406 20.9273 15.8065 21.9692 15.8065 23.0323C15.8065 23.8718 15.2284 24.5727 14.4516 24.7746V22.5806H13.5484ZM21.6774 27.0968H19.871V23.4839H21.6774V27.0968ZM22.5806 19.871V18.9677H23.4839V19.871H22.5806ZM24.8387 22.5806V24.7746C24.0619 24.5727 23.4839 23.8718 23.4839 23.0323C23.4839 21.9692 23.8497 20.9273 24.5131 20.0977L24.9092 19.6023C25.0026 19.4857 25.1413 19.4194 25.2903 19.4194C25.4394 19.4194 25.578 19.4857 25.6715 19.6027L26.0675 20.0977C26.731 20.9273 27.0968 21.9692 27.0968 23.0323C27.0968 23.8718 26.5187 24.5727 25.7419 24.7746V22.5806H24.8387Z" fill="white"/>
<path d="M15.3548 14.4516H14.4516V18.0645H15.3548V14.4516Z" fill="white"/>
<path d="M27.0968 14.4516H26.1935V18.0645H27.0968V14.4516Z" fill="white"/>
<path d="M24.3871 14.4516H21.6774V17.1613H24.3871V14.4516ZM23.4839 16.2581H22.5806V15.3548H23.4839V16.2581Z" fill="white"/>
<path d="M19.871 14.4516H17.1613V17.1613H19.871V14.4516ZM18.9677 16.2581H18.0645V15.3548H18.9677V16.2581Z" fill="white"/>
<path d="M8.58064 6.32258H5.87097V9.03226H8.58064V6.32258ZM7.67742 8.12903H6.77419V7.22581H7.67742V8.12903Z" fill="white"/>
<path d="M12.1935 6.32258H9.48387V9.03226H12.1935V6.32258ZM11.2903 8.12903H10.3871V7.22581H11.2903V8.12903Z" fill="white"/>
<path d="M4.96774 6.32258H2.25806V9.03226H4.96774V6.32258ZM4.06452 8.12903H3.16129V7.22581H4.06452V8.12903Z" fill="white"/>
<path d="M8.58064 9.93548H5.87097V12.6452H8.58064V9.93548ZM7.67742 11.7419H6.77419V10.8387H7.67742V11.7419Z" fill="white"/>
<path d="M12.1935 9.93548H9.48387V12.6452H12.1935V9.93548ZM11.2903 11.7419H10.3871V10.8387H11.2903V11.7419Z" fill="white"/>
<path d="M4.96774 9.93548H2.25806V12.6452H4.96774V9.93548ZM4.06452 11.7419H3.16129V10.8387H4.06452V11.7419Z" fill="white"/>
<path d="M8.58064 13.5484H5.87097V16.2581H8.58064V13.5484ZM7.67742 15.3548H6.77419V14.4516H7.67742V15.3548Z" fill="white"/>
<path d="M12.1935 13.5484H9.48387V16.2581H12.1935V13.5484ZM11.2903 15.3548H10.3871V14.4516H11.2903V15.3548Z" fill="white"/>
<path d="M2.25806 16.2581H4.96774V13.5484H2.25806V16.2581ZM3.16129 14.4516H4.06452V15.3548H3.16129V14.4516Z" fill="white"/>
<path d="M5.87097 19.871H8.58064V17.1613H5.87097V19.871ZM6.77419 18.0645H7.67742V18.9677H6.77419V18.0645Z" fill="white"/>
<path d="M9.48387 19.871H12.1935V17.1613H9.48387V19.871ZM10.3871 18.0645H11.2903V18.9677H10.3871V18.0645Z" fill="white"/>
<path d="M17.1613 20.7742H19.871V18.0645H17.1613V20.7742ZM18.0645 18.9677H18.9677V19.871H18.0645V18.9677Z" fill="white"/>
<path d="M0.903226 5.41935H13.5484V7.67742H14.4516V4.51613H0V19.4194H0.903226V5.41935Z" fill="white"/>
<path d="M2.25806 2.70968H12.1935V3.6129H13.0968V1.80645H12.1935V0H2.25806V1.80645H1.35484V3.6129H2.25806V2.70968ZM3.16129 0.903226H11.2903V1.80645H3.16129V0.903226Z" fill="white"/>
</svg>
