<svg width="12" height="12" viewBox="0 0 12 12" fill="none" xmlns="http://www.w3.org/2000/svg">
<path d="M8.25 0H3.75C1.67925 0 0 1.67925 0 3.75V8.25C0 10.3208 1.67925 12 3.75 12H8.25C10.3208 12 12 10.3208 12 8.25V3.75C12 1.67925 10.3208 0 8.25 0ZM10.875 8.25C10.875 9.6975 9.6975 10.875 8.25 10.875H3.75C2.3025 10.875 1.125 9.6975 1.125 8.25V3.75C1.125 2.3025 2.3025 1.125 3.75 1.125H8.25C9.6975 1.125 10.875 2.3025 10.875 3.75V8.25Z" fill="#9C8679"/>
<path d="M6 3C4.34325 3 3 4.34325 3 6C3 7.65675 4.34325 9 6 9C7.65675 9 9 7.65675 9 6C9 4.34325 7.65675 3 6 3ZM6 7.875C4.9665 7.875 4.125 7.0335 4.125 6C4.125 4.96575 4.9665 4.125 6 4.125C7.0335 4.125 7.875 4.96575 7.875 6C7.875 7.0335 7.0335 7.875 6 7.875Z" fill="#9C8679"/>
<path d="M9.22504 3.1748C9.44581 3.1748 9.62479 2.99583 9.62479 2.77505C9.62479 2.55427 9.44581 2.3753 9.22504 2.3753C9.00426 2.3753 8.82529 2.55427 8.82529 2.77505C8.82529 2.99583 9.00426 3.1748 9.22504 3.1748Z" fill="#9C8679"/>
</svg>
