<svg width="19" height="23" viewBox="0 0 19 23" fill="none" xmlns="http://www.w3.org/2000/svg">
<path d="M16.8773 4.01163C15.1924 1.44419 12.411 0 9.28196 0C6.17964 0 3.39824 1.44419 1.65987 4.01163C-0.0785003 6.52558 -0.479663 9.73488 0.590104 12.543C0.88429 13.2919 1.33894 14.0674 1.92731 14.7628L8.69359 22.7326C8.85406 22.893 9.01452 23 9.25522 23C9.49592 23 9.65638 22.893 9.81685 22.7326L16.6099 14.7628C17.1982 14.0674 17.6796 13.3186 17.9471 12.543C19.0168 9.73488 18.6157 6.52558 16.8773 4.01163ZM9.28196 13.4791C6.98196 13.4791 5.08313 11.5802 5.08313 9.28023C5.08313 6.98023 6.98196 5.0814 9.28196 5.0814C11.582 5.0814 13.4808 6.98023 13.4808 9.28023C13.4808 11.5802 11.6087 13.4791 9.28196 13.4791Z" fill="#00ADEF"/>
</svg>
