<svg width="43" height="44" viewBox="0 0 43 44" fill="none" xmlns="http://www.w3.org/2000/svg">
<path d="M42.4625 42.425V1.0375C42.4625 0.740405 42.2218 0.5 41.925 0.5H29.7341C29.4373 0.5 29.1966 0.740405 29.1966 1.0375V42.425H27.2018V8.11476C27.2018 7.81766 26.9611 7.57726 26.6643 7.57726H14.4734C14.1766 7.57726 13.9359 7.81766 13.9359 8.11476V42.425H9.22253V36.0435C10.9378 35.7828 12.2578 34.3022 12.2578 32.5154C12.2578 30.5454 10.655 28.9429 8.68503 28.9429C6.71508 28.9429 5.11229 30.5454 5.11229 32.5154C5.11229 34.3022 6.43232 35.7828 8.14753 36.0435V42.425H3.23996V39.9965C4.47325 39.7464 5.40466 38.6542 5.40466 37.3481C5.40466 35.8579 4.1924 34.646 2.70246 34.646C1.21226 34.646 0 35.8579 0 37.3481C0 38.6542 0.931505 39.7465 2.16496 39.9965V42.425H0.5375C0.240668 42.425 0 42.6654 0 42.9625C0 43.2596 0.240668 43.5 0.5375 43.5H42.4625C42.7593 43.5 43 43.2596 43 42.9625C43 42.6654 42.7593 42.425 42.4625 42.425ZM6.18729 32.5154C6.18729 31.138 7.30769 30.0179 8.68503 30.0179C10.0624 30.0179 11.1828 31.138 11.1828 32.5154C11.1828 33.8927 10.0624 35.0134 8.68503 35.0134C7.30769 35.0134 6.18729 33.8927 6.18729 32.5154ZM1.075 37.3481C1.075 36.4511 1.80514 35.7209 2.70246 35.7209C3.59978 35.7209 4.32966 36.4511 4.32966 37.3481C4.32966 38.2457 3.59978 38.9759 2.70246 38.9759C1.80514 38.9759 1.075 38.2457 1.075 37.3481ZM41.3875 1.575V30.1969H30.2716V1.575H41.3875ZM30.2716 31.2719H41.3875V42.425H38.1321V36.9828C38.1321 36.6857 37.8914 36.4453 37.5946 36.4453H34.0341C33.7373 36.4453 33.4966 36.6857 33.4966 36.9828V42.425H30.2716V31.2719ZM37.0571 42.425H34.5716V37.5203H37.0571V42.425ZM26.1268 8.65226V30.1969H15.0109V8.65226H26.1268ZM15.0109 31.2719H26.1268V42.425H22.8713V36.9828C22.8713 36.6857 22.6306 36.4453 22.3338 36.4453H18.7734C18.4766 36.4453 18.2359 36.6857 18.2359 36.9828V42.425H15.0109V31.2719ZM21.7963 42.425H19.3109V37.5203H21.7963V42.425Z" fill="#9C8679"/>
<path d="M17.7475 14.8335C18.0443 14.8335 18.285 14.5931 18.285 14.296V11.5188C18.285 11.2217 18.0443 10.9813 17.7475 10.9813C17.4506 10.9813 17.21 11.2217 17.21 11.5188V14.296C17.21 14.5931 17.4506 14.8335 17.7475 14.8335Z" fill="#9C8679"/>
<path d="M20.5536 14.8335C20.8504 14.8335 21.0911 14.5931 21.0911 14.296V11.5188C21.0911 11.2217 20.8504 10.9813 20.5536 10.9813C20.2568 10.9813 20.0161 11.2217 20.0161 11.5188V14.296C20.0161 14.5931 20.2568 14.8335 20.5536 14.8335Z" fill="#9C8679"/>
<path d="M23.36 14.8335C23.6568 14.8335 23.8975 14.5931 23.8975 14.296V11.5188C23.8975 11.2217 23.6568 10.9813 23.36 10.9813C23.0632 10.9813 22.8225 11.2217 22.8225 11.5188V14.296C22.8225 14.5931 23.0632 14.8335 23.36 14.8335Z" fill="#9C8679"/>
<path d="M17.7475 21.0148C18.0443 21.0148 18.285 20.7744 18.285 20.4773V17.7C18.285 17.4029 18.0443 17.1625 17.7475 17.1625C17.4506 17.1625 17.21 17.4029 17.21 17.7V20.4773C17.21 20.7744 17.4506 21.0148 17.7475 21.0148Z" fill="#9C8679"/>
<path d="M20.5536 21.0148C20.8504 21.0148 21.0911 20.7744 21.0911 20.4773V17.7C21.0911 17.4029 20.8504 17.1625 20.5536 17.1625C20.2568 17.1625 20.0161 17.4029 20.0161 17.7V20.4773C20.0161 20.7744 20.2568 21.0148 20.5536 21.0148Z" fill="#9C8679"/>
<path d="M23.36 21.0148C23.6568 21.0148 23.8975 20.7744 23.8975 20.4773V17.7C23.8975 17.4029 23.6568 17.1625 23.36 17.1625C23.0632 17.1625 22.8225 17.4029 22.8225 17.7V20.4773C22.8225 20.7744 23.0632 21.0148 23.36 21.0148Z" fill="#9C8679"/>
<path d="M17.7475 27.196C18.0443 27.196 18.285 26.9556 18.285 26.6585V23.8813C18.285 23.5842 18.0443 23.3438 17.7475 23.3438C17.4506 23.3438 17.21 23.5842 17.21 23.8813V26.6585C17.21 26.9556 17.4506 27.196 17.7475 27.196Z" fill="#9C8679"/>
<path d="M20.5536 27.196C20.8504 27.196 21.0911 26.9556 21.0911 26.6585V23.8813C21.0911 23.5842 20.8504 23.3438 20.5536 23.3438C20.2568 23.3438 20.0161 23.5842 20.0161 23.8813V26.6585C20.0161 26.9556 20.2568 27.196 20.5536 27.196Z" fill="#9C8679"/>
<path d="M23.36 27.196C23.6568 27.196 23.8975 26.9556 23.8975 26.6585V23.8813C23.8975 23.5842 23.6568 23.3438 23.36 23.3438C23.0632 23.3438 22.8225 23.5842 22.8225 23.8813V26.6585C22.8225 26.9556 23.0632 27.196 23.36 27.196Z" fill="#9C8679"/>
<path d="M33.0082 8.65226C33.3051 8.65226 33.5457 8.41185 33.5457 8.11476V5.3375C33.5457 5.04041 33.3051 4.8 33.0082 4.8C32.7114 4.8 32.4707 5.04041 32.4707 5.3375V8.11476C32.4707 8.41185 32.7114 8.65226 33.0082 8.65226Z" fill="#9C8679"/>
<path d="M35.8144 8.65226C36.1112 8.65226 36.3519 8.41185 36.3519 8.11476V5.3375C36.3519 5.04041 36.1112 4.8 35.8144 4.8C35.5175 4.8 35.2769 5.04041 35.2769 5.3375V8.11476C35.2769 8.41185 35.5175 8.65226 35.8144 8.65226Z" fill="#9C8679"/>
<path d="M38.6207 8.65226C38.9176 8.65226 39.1582 8.41185 39.1582 8.11476V5.3375C39.1582 5.04041 38.9176 4.8 38.6207 4.8C38.3239 4.8 38.0832 5.04041 38.0832 5.3375V8.11476C38.0832 8.41185 38.3239 8.65226 38.6207 8.65226Z" fill="#9C8679"/>
<path d="M33.0082 14.8335C33.3051 14.8335 33.5457 14.5931 33.5457 14.296V11.5188C33.5457 11.2217 33.3051 10.9813 33.0082 10.9813C32.7114 10.9813 32.4707 11.2217 32.4707 11.5188V14.296C32.4707 14.5931 32.7114 14.8335 33.0082 14.8335Z" fill="#9C8679"/>
<path d="M35.8144 14.8335C36.1112 14.8335 36.3519 14.5931 36.3519 14.296V11.5188C36.3519 11.2217 36.1112 10.9813 35.8144 10.9813C35.5175 10.9813 35.2769 11.2217 35.2769 11.5188V14.296C35.2769 14.5931 35.5175 14.8335 35.8144 14.8335Z" fill="#9C8679"/>
<path d="M38.6207 14.8335C38.9176 14.8335 39.1582 14.5931 39.1582 14.296V11.5188C39.1582 11.2217 38.9176 10.9813 38.6207 10.9813C38.3239 10.9813 38.0832 11.2217 38.0832 11.5188V14.296C38.0832 14.5931 38.3239 14.8335 38.6207 14.8335Z" fill="#9C8679"/>
<path d="M33.0082 21.0148C33.3051 21.0148 33.5457 20.7744 33.5457 20.4773V17.7C33.5457 17.4029 33.3051 17.1625 33.0082 17.1625C32.7114 17.1625 32.4707 17.4029 32.4707 17.7V20.4773C32.4707 20.7744 32.7114 21.0148 33.0082 21.0148Z" fill="#9C8679"/>
<path d="M35.8144 21.0148C36.1112 21.0148 36.3519 20.7744 36.3519 20.4773V17.7C36.3519 17.4029 36.1112 17.1625 35.8144 17.1625C35.5175 17.1625 35.2769 17.4029 35.2769 17.7V20.4773C35.2769 20.7744 35.5175 21.0148 35.8144 21.0148Z" fill="#9C8679"/>
<path d="M38.6207 21.0148C38.9176 21.0148 39.1582 20.7744 39.1582 20.4773V17.7C39.1582 17.4029 38.9176 17.1625 38.6207 17.1625C38.3239 17.1625 38.0832 17.4029 38.0832 17.7V20.4773C38.0832 20.7744 38.3239 21.0148 38.6207 21.0148Z" fill="#9C8679"/>
<path d="M33.0082 27.196C33.3051 27.196 33.5457 26.9556 33.5457 26.6585V23.8813C33.5457 23.5842 33.3051 23.3438 33.0082 23.3438C32.7114 23.3438 32.4707 23.5842 32.4707 23.8813V26.6585C32.4707 26.9556 32.7114 27.196 33.0082 27.196Z" fill="#9C8679"/>
<path d="M35.8144 27.196C36.1112 27.196 36.3519 26.9556 36.3519 26.6585V23.8813C36.3519 23.5842 36.1112 23.3438 35.8144 23.3438C35.5175 23.3438 35.2769 23.5842 35.2769 23.8813V26.6585C35.2769 26.9556 35.5175 27.196 35.8144 27.196Z" fill="#9C8679"/>
<path d="M38.6207 27.196C38.9176 27.196 39.1582 26.9556 39.1582 26.6585V23.8813C39.1582 23.5842 38.9176 23.3438 38.6207 23.3438C38.3239 23.3438 38.0832 23.5842 38.0832 23.8813V26.6585C38.0832 26.9556 38.3239 27.196 38.6207 27.196Z" fill="#9C8679"/>
</svg>
