<svg width="41" height="42" viewBox="0 0 41 42" fill="none" xmlns="http://www.w3.org/2000/svg">
<path d="M36.9 10.2375H40.4875C40.6234 10.2375 40.7538 10.1835 40.8499 10.0874C40.946 9.99128 41 9.86092 41 9.725V1.0125C41 0.876577 40.946 0.74622 40.8499 0.650108C40.7538 0.553995 40.6234 0.5 40.4875 0.5H0.5125C0.376577 0.5 0.24622 0.553995 0.150108 0.650108C0.0539955 0.74622 0 0.876577 0 1.0125V40.9875C0 41.1234 0.0539955 41.2538 0.150108 41.3499C0.24622 41.446 0.376577 41.5 0.5125 41.5H40.4875C40.6234 41.5 40.7538 41.446 40.8499 41.3499C40.946 41.2538 41 41.1234 41 40.9875V16.3875C41 16.2516 40.946 16.1212 40.8499 16.0251C40.7538 15.929 40.6234 15.875 40.4875 15.875C40.3516 15.875 40.2212 15.929 40.1251 16.0251C40.029 16.1212 39.975 16.2516 39.975 16.3875V21H31.2625C31.1266 21 30.9962 21.054 30.9001 21.1501C30.804 21.2462 30.75 21.3766 30.75 21.5125C30.75 21.6484 30.804 21.7788 30.9001 21.8749C30.9962 21.971 31.1266 22.025 31.2625 22.025H36.9V36.8875H26.1795V27.7568C26.1795 27.6209 26.1255 27.4905 26.0294 27.3944C25.9333 27.2983 25.8029 27.2443 25.667 27.2443C25.5311 27.2443 25.4007 27.2983 25.3046 27.3944C25.2085 27.4905 25.1545 27.6209 25.1545 27.7568V36.8875H5.125V22.025H9.225V27.15C9.225 27.2859 9.27899 27.4163 9.37511 27.5124C9.47122 27.6085 9.60158 27.6625 9.7375 27.6625C9.87342 27.6625 10.0038 27.6085 10.0999 27.5124C10.196 27.4163 10.25 27.2859 10.25 27.15V22.025H27.1625C27.2984 22.025 27.4288 21.971 27.5249 21.8749C27.621 21.7788 27.675 21.6484 27.675 21.5125C27.675 21.3766 27.621 21.2462 27.5249 21.1501C27.4288 21.054 27.2984 21 27.1625 21H26.1375V18.95C26.1375 18.8141 26.0835 18.6837 25.9874 18.5876C25.8913 18.4915 25.7609 18.4375 25.625 18.4375C25.4891 18.4375 25.3587 18.4915 25.2626 18.5876C25.1665 18.6837 25.1125 18.8141 25.1125 18.95V21H5.125V5.1125H25.1125V14.85C25.1125 14.9859 25.1665 15.1163 25.2626 15.2124C25.3587 15.3085 25.4891 15.3625 25.625 15.3625C25.7609 15.3625 25.8913 15.3085 25.9874 15.2124C26.0835 15.1163 26.1375 14.9859 26.1375 14.85V13.825H32.8C32.9359 13.825 33.0663 13.771 33.1624 13.6749C33.2585 13.5788 33.3125 13.4484 33.3125 13.3125C33.3125 13.1766 33.2585 13.0462 33.1624 12.9501C33.0663 12.854 32.9359 12.8 32.8 12.8H26.1375V5.1125H36.3875V9.725C36.3875 9.86092 36.4415 9.99128 36.5376 10.0874C36.6337 10.1835 36.7641 10.2375 36.9 10.2375ZM4.6125 4.0875C4.47658 4.0875 4.34622 4.14149 4.25011 4.23761C4.154 4.33372 4.1 4.46408 4.1 4.6V37.4C4.1 37.5359 4.154 37.6663 4.25011 37.7624C4.34622 37.8585 4.47658 37.9125 4.6125 37.9125H37.4125C37.5484 37.9125 37.6788 37.8585 37.7749 37.7624C37.871 37.6663 37.925 37.5359 37.925 37.4V22.025H39.975V40.475H1.025V1.525H39.975V9.2125H37.4125V4.6C37.4125 4.46408 37.3585 4.33372 37.2624 4.23761C37.1663 4.14149 37.0359 4.0875 36.9 4.0875H4.6125Z" fill="#9C8679"/>
</svg>
