<svg width="12" height="15" viewBox="0 0 12 15" fill="none" xmlns="http://www.w3.org/2000/svg">
<path fill-rule="evenodd" clip-rule="evenodd" d="M9.82082 12.166C9.93737 11.6714 10.1157 10.7199 10.2048 10.2441C10.3168 9.64639 10.4151 9.78185 9.83009 9.6201C9.40142 9.50175 8.5617 9.27973 8.14187 9.1688C7.72198 9.05771 7.72198 9.05771 7.4473 9.24272C7.17261 9.42772 6.62346 9.79783 6.34872 9.98267C6.0741 10.1678 6.07409 10.1678 5.93634 10.0512C4.8863 9.16158 3.70358 7.41693 3.26461 6.14428C3.20569 5.97324 3.20569 5.97324 3.47612 5.78224C3.74649 5.59107 4.28745 5.20884 4.55798 5.01762C4.82841 4.82661 4.82841 4.82661 4.87595 4.39311C4.92349 3.95961 5.01841 3.09266 5.06207 2.6482C5.12182 2.04173 5.21256 2.18238 4.61684 2.07306C4.14262 1.98585 3.19461 1.81163 2.69321 1.74333C2.18172 1.6736 2.08498 1.6177 1.97958 2.11423C1.76787 3.1112 1.72134 4.15399 1.92131 5.15765C2.38633 7.48925 4.3399 10.3719 6.37125 11.6647C7.199 12.1912 8.25138 12.5481 9.22024 12.702C9.71949 12.7813 9.7021 12.6705 9.82082 12.166Z" fill="#9C8679"/>
</svg>
