<svg width="23" height="23" viewBox="0 0 23 23" fill="none" xmlns="http://www.w3.org/2000/svg">
<path d="M21.4951 16.3629C19.7176 16.2002 17.9844 15.7484 16.3464 15.019C15.5414 14.6559 14.6001 14.9845 14.2041 15.7665L13.087 17.9844C9.69943 16.1066 6.89014 13.2956 5.01564 9.91136L7.23186 8.79586C8.01386 8.40321 8.34407 7.46186 7.98264 6.65357C7.25157 5.01729 6.79814 3.28571 6.63714 1.50486C6.55829 0.647286 5.86007 0 5.01071 0H0.821429C0.368 0 0 0.368 0 0.821429C0 4.16629 0.729429 7.39121 2.16693 10.4108C4.35029 14.9484 8.05164 18.6497 12.5925 20.8347C15.6104 22.2722 18.8354 23 22.1786 23C22.632 23 23 22.632 23 22.1786V17.9893C23 17.1399 22.3527 16.4401 21.4951 16.3629Z" fill="#00ADEF"/>
</svg>
