<svg width="32" height="41" viewBox="0 0 32 41" fill="none" xmlns="http://www.w3.org/2000/svg">
<path d="M32 6.68772L25.2513 0H5.17172V21.8032C2.27903 22.0479 0 24.4578 0 27.3867C0 29.0684 0.752162 30.5782 1.93939 31.6065V41H3.27152L5.65657 38.6365L8.04162 41H9.37374V36.8359H32V6.68772ZM25.5354 1.6404L30.3446 6.40625H25.5354V1.6404ZM0.969697 27.3867C0.969697 24.8257 3.07224 22.7422 5.65657 22.7422C8.24089 22.7422 10.3434 24.8257 10.3434 27.3867C10.3434 29.9477 8.24089 32.0312 5.65657 32.0312C3.07224 32.0312 0.969697 29.9477 0.969697 27.3867ZM5.65657 37.2776L2.90909 40.0002V32.2842C3.72323 32.7345 4.65988 32.9923 5.65657 32.9923C6.65325 32.9923 7.5899 32.7345 8.40404 32.2842V40.0002L5.65657 37.2776ZM9.37374 35.875V31.6065C10.561 30.5782 11.3131 29.0684 11.3131 27.3867C11.3131 24.4579 9.0341 22.048 6.14141 21.8032V0.960938H24.5657V7.36719H31.0303V35.875H9.37374Z" fill="#00ADEF"/>
<path d="M9.5354 5.125H17.293V6.08594H9.5354V5.125Z" fill="#00ADEF"/>
<path d="M9.5354 7.6875H14.7071V8.64844H9.5354V7.6875Z" fill="#00ADEF"/>
<path d="M9.5354 11.5312H27.6364V12.4922H9.5354V11.5312Z" fill="#00ADEF"/>
<path d="M9.5354 14.0938H27.6364V15.0547H9.5354V14.0938Z" fill="#00ADEF"/>
<path d="M9.5354 19.2188H27.6364V20.1797H9.5354V19.2188Z" fill="#00ADEF"/>
<path d="M12.1213 21.7812H25.0506V22.7422H12.1213V21.7812Z" fill="#00ADEF"/>
<path d="M9.5354 16.6562H27.6364V17.6172H9.5354V16.6562Z" fill="#00ADEF"/>
<path d="M19.8787 25.625H27.6362V26.5859H19.8787V25.625Z" fill="#00ADEF"/>
<path d="M22.4646 28.1875H27.6363V29.1484H22.4646V28.1875Z" fill="#00ADEF"/>
<path d="M5.65664 30.4297C7.34982 30.4297 8.72735 29.0646 8.72735 27.3867C8.72735 25.7088 7.34982 24.3438 5.65664 24.3438C3.96347 24.3438 2.58594 25.7088 2.58594 27.3867C2.58594 29.0646 3.96347 30.4297 5.65664 30.4297ZM5.65664 25.3047C6.81519 25.3047 7.75765 26.2386 7.75765 27.3867C7.75765 28.5348 6.81519 29.4688 5.65664 29.4688C4.4981 29.4688 3.55563 28.5348 3.55563 27.3867C3.55563 26.2386 4.4981 25.3047 5.65664 25.3047Z" fill="#00ADEF"/>
</svg>
