<svg width="142" height="35" viewBox="0 0 142 35" fill="none" xmlns="http://www.w3.org/2000/svg">
<g clip-path="url(#clip0)">
<path d="M35.7641 32.7521C35.6538 32.8651 35.5592 32.9781 35.4331 33.075C35.3228 33.1719 35.1967 33.2365 35.0706 33.3011C34.9445 33.3657 34.8026 33.398 34.6765 33.398C34.4716 33.398 34.2982 33.3334 34.1564 33.2204C34.0303 33.0912 33.9515 32.9135 33.9515 32.6875C33.9515 32.5583 33.9988 32.4452 34.0776 32.3161C34.1406 32.203 34.2352 32.1061 34.3455 32.0092C34.4559 31.8962 34.582 31.7993 34.7081 31.7024C34.8341 31.6217 34.9602 31.5248 35.0706 31.4279C35.1809 31.3472 35.2597 31.2503 35.3385 31.1534C35.4173 31.0565 35.4489 30.9758 35.4489 30.8627C35.4489 30.7658 35.4173 30.6689 35.3701 30.6044C35.3228 30.5398 35.2282 30.4913 35.1021 30.4913C34.9918 30.4913 34.8657 30.5236 34.7553 30.5721C34.6292 30.6367 34.5189 30.7012 34.4086 30.782C34.2982 30.8627 34.2037 30.9435 34.0933 31.0404C34.0145 31.1372 33.9199 31.2341 33.8569 31.3149L33.7623 31.2341C33.8411 31.1211 33.9515 31.0081 34.0618 30.8789C34.1721 30.7658 34.2982 30.6528 34.4401 30.5559C34.582 30.459 34.7238 30.3783 34.8657 30.3137C35.0075 30.2491 35.1652 30.2168 35.307 30.2168C35.4804 30.2168 35.6222 30.2814 35.7168 30.3944C35.8114 30.5236 35.8744 30.6851 35.8744 30.8789C35.8744 31.0081 35.8272 31.1211 35.7641 31.2341C35.6853 31.3472 35.5907 31.4602 35.4804 31.5571C35.3701 31.6378 35.2597 31.7347 35.1179 31.8316C34.9918 31.9124 34.8657 32.0092 34.7711 32.09C34.6608 32.1869 34.5662 32.2838 34.4874 32.3807C34.4086 32.4775 34.377 32.5744 34.377 32.6875C34.377 32.8328 34.4086 32.9458 34.4874 33.0427C34.5504 33.1396 34.6608 33.1881 34.8184 33.1881C34.8972 33.1881 34.9918 33.1558 35.1021 33.0912C35.2124 33.0266 35.3228 32.962 35.4173 32.8651C35.5277 32.7844 35.6222 32.6875 35.7168 32.5906C35.8114 32.5098 35.8744 32.413 35.9217 32.3484L36.0005 32.4291C35.9375 32.526 35.8587 32.639 35.7641 32.7521Z" fill="#21002B"/>
<path d="M38.6957 30.9109C38.6641 30.7979 38.6169 30.7171 38.5538 30.6364C38.4908 30.5556 38.412 30.491 38.3174 30.4587C38.2228 30.4103 38.1125 30.378 38.0021 30.378C37.9233 30.378 37.8445 30.3941 37.7657 30.3941C37.7027 30.4103 37.6239 30.4103 37.545 30.4426L36.7885 32.9133C36.82 33.0102 36.883 33.0909 36.9934 33.1716C37.0879 33.2362 37.214 33.2685 37.3559 33.2685C37.4978 33.2685 37.6239 33.2362 37.7499 33.1716C37.876 33.107 37.9864 33.0102 38.0967 32.8971C38.1913 32.8002 38.2859 32.671 38.3647 32.5257C38.4592 32.3804 38.5223 32.235 38.5853 32.0897C38.6326 31.9444 38.6799 31.7829 38.7114 31.6376C38.743 31.4922 38.7587 31.3469 38.7587 31.2339C38.7587 31.1208 38.743 31.0078 38.6957 30.9109ZM39.074 32.0574C38.9794 32.2996 38.8533 32.5257 38.6957 32.7195C38.538 32.9294 38.3331 33.0909 38.1125 33.2201C37.8918 33.3331 37.6554 33.3977 37.3874 33.3977C37.2771 33.3977 37.1668 33.3816 37.0249 33.3331C36.8988 33.3008 36.7885 33.2362 36.7097 33.1393L36.2053 34.7865C36.2998 34.7865 36.3944 34.8026 36.5047 34.8188C36.5993 34.8511 36.6939 34.8834 36.7727 34.9318L36.7569 34.9964H35.1965L35.2123 34.9318C35.2911 34.8995 35.3856 34.8672 35.4802 34.8349C35.5748 34.8188 35.6694 34.8026 35.7639 34.7865L37.0407 30.6364C36.8988 30.7171 36.7569 30.814 36.5993 30.9109C36.4575 31.0239 36.3156 31.1208 36.1895 31.2339L36.1422 31.1693C36.2998 31.0239 36.4575 30.8947 36.6151 30.7817C36.7727 30.6687 36.9303 30.5718 37.0879 30.4749L37.3401 29.6675H37.7815L37.5923 30.2811C37.7815 30.2327 37.9706 30.2165 38.1913 30.2165C38.3489 30.2165 38.475 30.2488 38.6011 30.2973C38.7272 30.3619 38.8375 30.4426 38.9163 30.5395C39.0109 30.6525 39.074 30.7656 39.137 30.8947C39.1843 31.0401 39.2001 31.1693 39.2001 31.3307C39.2001 31.5568 39.1528 31.8152 39.074 32.0574Z" fill="#21002B"/>
<path d="M41.9111 31.6701C41.8323 31.977 41.7378 32.2838 41.6117 32.5906C41.4856 32.8812 41.3437 33.1719 41.1703 33.4626C40.9969 33.7371 40.8078 33.9955 40.6029 34.2054C40.398 34.4153 40.1773 34.593 39.9567 34.7221C39.7202 34.8513 39.4838 34.9159 39.2474 34.9159C39.1686 34.9159 39.074 34.9159 38.9952 34.8836C38.9006 34.8513 38.8376 34.8029 38.7745 34.7221L38.8848 34.3992C38.9321 34.3669 38.9794 34.3346 39.0425 34.3184C39.0897 34.3023 39.1528 34.2861 39.2158 34.2861C39.2474 34.2861 39.2789 34.3023 39.2789 34.3507C39.2947 34.383 39.2947 34.4315 39.3104 34.4799C39.3104 34.5445 39.3262 34.593 39.3577 34.6253C39.3735 34.6737 39.4207 34.6898 39.4838 34.6898C39.5941 34.6898 39.7045 34.6576 39.799 34.6091C39.9094 34.5607 40.0039 34.4961 40.0985 34.4153C40.1931 34.3346 40.2719 34.2538 40.3665 34.1731C40.4453 34.0762 40.5083 33.9955 40.5714 33.9147C40.5714 33.834 40.5714 33.7048 40.5714 33.4949C40.5714 33.3011 40.5556 33.075 40.5556 32.8328C40.5399 32.5744 40.5241 32.3161 40.4926 32.0577C40.4768 31.7832 40.4453 31.5409 40.398 31.3149C40.3507 31.0888 40.3034 30.9112 40.2404 30.7658C40.1773 30.6205 40.0985 30.5559 40.0197 30.5559C39.9724 30.5559 39.9094 30.5882 39.8463 30.6528C39.7675 30.7174 39.7045 30.782 39.6414 30.8789C39.5784 30.9596 39.5153 31.0404 39.468 31.1211C39.4207 31.2018 39.3735 31.2664 39.3419 31.3149L39.2631 31.2341C39.2947 31.1695 39.3577 31.0727 39.4365 30.9596C39.4996 30.8304 39.5784 30.7174 39.6572 30.6205C39.7518 30.5075 39.8463 30.4106 39.9409 30.3298C40.0355 30.2491 40.13 30.2168 40.2246 30.2168C40.3349 30.2168 40.4295 30.2652 40.5241 30.3783C40.6029 30.4913 40.6659 30.6366 40.729 30.8143C40.792 31.0081 40.8393 31.2018 40.8866 31.4279C40.9181 31.654 40.9497 31.8801 40.9654 32.1223C40.9969 32.3484 41.0127 32.5744 41.0127 32.7844C41.0285 32.9943 41.0285 33.1719 41.0285 33.3173C41.1388 33.1558 41.2334 32.9781 41.328 32.7844C41.4225 32.5906 41.5013 32.3968 41.5644 32.203C41.6432 31.9931 41.6905 31.7832 41.7378 31.5732C41.7693 31.3633 41.8008 31.1534 41.8008 30.9435C41.7062 30.895 41.6274 30.8304 41.5644 30.7497C41.5013 30.6689 41.4698 30.5721 41.4698 30.459C41.4698 30.4106 41.4856 30.3783 41.5171 30.346C41.5486 30.2975 41.5801 30.2814 41.6274 30.2652C41.659 30.2491 41.7062 30.2329 41.7535 30.2329C41.8008 30.2168 41.8481 30.2168 41.8796 30.2168C41.9742 30.4106 42.0057 30.6205 42.0057 30.8304C42.0057 31.0888 41.9742 31.3795 41.9111 31.6701Z" fill="#21002B"/>
<path d="M45.3947 32.6713C45.3002 32.7844 45.2056 32.8974 45.0952 33.0104C45.0007 33.1073 44.8903 33.2042 44.7642 33.285C44.6539 33.3657 44.5593 33.398 44.449 33.398C44.3387 33.398 44.2599 33.3657 44.2126 33.285C44.1495 33.2042 44.1338 33.1073 44.1338 32.9943C44.1338 32.9297 44.1338 32.8651 44.1653 32.7844L44.6539 31.1857C44.6854 31.1211 44.7012 31.0404 44.717 30.9758C44.7327 30.895 44.7485 30.8143 44.7485 30.7497C44.7485 30.6851 44.7327 30.6205 44.7012 30.5721C44.6854 30.5236 44.6381 30.4913 44.5593 30.4913C44.4963 30.4913 44.4017 30.5236 44.3071 30.6044C44.2126 30.6689 44.118 30.7658 44.0234 30.8789C43.9131 30.9919 43.8028 31.1049 43.7082 31.2503C43.5979 31.3956 43.5033 31.5248 43.4245 31.654C43.3299 31.7993 43.2511 31.9124 43.2038 32.0415C43.1408 32.1546 43.0935 32.2353 43.0777 32.2999L42.7467 33.3173H42.3054L43.0147 31.0242C43.0304 30.9758 43.0462 30.9112 43.0462 30.8627C43.0619 30.7981 43.0619 30.7497 43.0619 30.7012C43.0619 30.6528 43.0619 30.6044 43.0462 30.5559C43.0304 30.5075 42.9989 30.4913 42.9358 30.4913C42.8886 30.4913 42.8098 30.5236 42.7309 30.5882C42.6521 30.6528 42.5576 30.7174 42.4788 30.8143C42.3999 30.895 42.3211 30.9758 42.2423 31.0727C42.1793 31.1534 42.1162 31.218 42.0847 31.2664L42.0059 31.2018C42.0689 31.1049 42.132 31.0081 42.2266 30.895C42.3211 30.782 42.4315 30.6689 42.5418 30.5721C42.6521 30.4752 42.7625 30.3944 42.8886 30.3137C42.9989 30.2491 43.1092 30.2168 43.2196 30.2168C43.2826 30.2168 43.3141 30.2329 43.3614 30.2491C43.3929 30.2652 43.4087 30.2975 43.4402 30.346C43.456 30.3783 43.456 30.4106 43.4718 30.459C43.4718 30.5075 43.4875 30.5559 43.4875 30.6044C43.4875 30.782 43.456 30.9435 43.4087 31.1211C43.3614 31.2987 43.3141 31.4602 43.2669 31.6217C43.2984 31.5571 43.3614 31.4602 43.4245 31.3633C43.4875 31.2664 43.5663 31.1695 43.6451 31.0565C43.7397 30.9596 43.8343 30.8466 43.9289 30.7497C44.0234 30.6528 44.118 30.5559 44.2283 30.4752C44.3229 30.3944 44.4175 30.3298 44.5278 30.2814C44.6224 30.2329 44.717 30.2168 44.7958 30.2168C44.8746 30.2168 44.9376 30.2329 45.0007 30.2491C45.048 30.2814 45.0952 30.3137 45.1268 30.3621C45.1583 30.3944 45.1898 30.459 45.2056 30.5075C45.2213 30.5721 45.2371 30.6367 45.2529 30.7012L44.6697 32.5906C44.6539 32.639 44.6381 32.6875 44.6224 32.7359C44.6224 32.8005 44.6066 32.849 44.6066 32.8974C44.6066 32.9297 44.6224 32.962 44.6381 32.9943C44.6381 33.0427 44.6697 33.0589 44.717 33.0589C44.7642 33.0589 44.8273 33.0266 44.9061 32.962C44.9849 32.8974 45.0637 32.8328 45.1425 32.7521C45.2371 32.6552 45.3002 32.5744 45.3632 32.4937C45.442 32.413 45.4893 32.3484 45.5208 32.2999L45.5996 32.3807C45.5523 32.4614 45.4893 32.5583 45.3947 32.6713Z" fill="#21002B"/>
<path d="M48.9884 32.6713C48.9095 32.7844 48.7992 32.8974 48.7046 33.0104C48.5943 33.1073 48.484 33.2042 48.3736 33.285C48.2475 33.3657 48.153 33.398 48.0584 33.398C47.9323 33.398 47.8535 33.3657 47.8062 33.285C47.7432 33.2042 47.7274 33.1073 47.7274 32.9943C47.7274 32.9297 47.7274 32.8651 47.7589 32.7844L48.2475 31.1857C48.2791 31.1211 48.2948 31.0404 48.3106 30.9758C48.3263 30.895 48.3421 30.8143 48.3421 30.7497C48.3421 30.6851 48.3263 30.6205 48.3106 30.5721C48.2791 30.5236 48.2318 30.4913 48.153 30.4913C48.0899 30.4913 48.0111 30.5236 47.9165 30.6044C47.822 30.6689 47.7116 30.7658 47.6171 30.8789C47.5067 30.9919 47.4121 31.1049 47.3018 31.2503C47.1915 31.3956 47.0969 31.5248 47.0181 31.654C46.9235 31.7993 46.8605 31.9124 46.7974 32.0415C46.7344 32.1546 46.6871 32.2353 46.6713 32.2999L46.3561 33.3173H45.899L46.6083 31.0242C46.624 30.9758 46.6398 30.9112 46.6398 30.8627C46.6556 30.7981 46.6556 30.7497 46.6556 30.7012C46.6556 30.6528 46.6556 30.6044 46.6398 30.5559C46.624 30.5075 46.5925 30.4913 46.5452 30.4913C46.4822 30.4913 46.4034 30.5236 46.3246 30.5882C46.2458 30.6528 46.1512 30.7174 46.0724 30.8143C45.9936 30.895 45.9148 30.9758 45.8359 31.0727C45.7729 31.1534 45.7256 31.218 45.6783 31.2664L45.5995 31.2018C45.6626 31.1049 45.7256 31.0081 45.8202 30.895C45.9148 30.782 46.0251 30.6689 46.1354 30.5721C46.2458 30.4752 46.3561 30.3944 46.4822 30.3137C46.5925 30.2491 46.7029 30.2168 46.8132 30.2168C46.8762 30.2168 46.9235 30.2329 46.9551 30.2491C46.9866 30.2652 47.0023 30.2975 47.0339 30.346C47.0496 30.3783 47.0654 30.4106 47.0654 30.459C47.0811 30.5075 47.0811 30.5559 47.0811 30.6044C47.0811 30.782 47.0496 30.9435 47.0023 31.1211C46.9551 31.2987 46.9078 31.4602 46.8605 31.6217C46.892 31.5571 46.9551 31.4602 47.0181 31.3633C47.0811 31.2664 47.16 31.1695 47.2388 31.0565C47.3333 30.9596 47.4279 30.8466 47.5225 30.7497C47.6171 30.6528 47.7116 30.5559 47.822 30.4752C47.9165 30.3944 48.0111 30.3298 48.1214 30.2814C48.216 30.2329 48.3106 30.2168 48.4052 30.2168C48.4682 30.2168 48.547 30.2329 48.5943 30.2491C48.6416 30.2814 48.6889 30.3137 48.7204 30.3621C48.7519 30.3944 48.7834 30.459 48.7992 30.5075C48.815 30.5721 48.8307 30.6367 48.8465 30.7012L48.2633 32.5906C48.2475 32.639 48.2318 32.6875 48.2318 32.7359C48.216 32.8005 48.2002 32.849 48.2002 32.8974C48.2002 32.9297 48.216 32.962 48.2318 32.9943C48.2475 33.0427 48.2633 33.0589 48.3106 33.0589C48.3579 33.0589 48.4367 33.0266 48.5155 32.962C48.5785 32.8974 48.6573 32.8328 48.7519 32.7521C48.8307 32.6552 48.8938 32.5744 48.9726 32.4937C49.0356 32.413 49.0829 32.3484 49.1144 32.2999L49.1933 32.3807C49.146 32.4614 49.0829 32.5583 48.9884 32.6713Z" fill="#21002B"/>
<path d="M51.6995 30.459C51.6364 30.3783 51.5576 30.3298 51.4473 30.3298C51.2897 30.3298 51.1478 30.3783 51.0059 30.4429C50.8799 30.5236 50.738 30.6205 50.6119 30.7497C50.4858 30.8789 50.3755 31.0081 50.2809 31.1695C50.1706 31.331 50.076 31.4925 49.9972 31.654C49.9341 31.8155 49.8711 31.9931 49.8238 32.1546C49.7765 32.3161 49.7607 32.4614 49.7607 32.5906C49.7607 32.6552 49.7607 32.7198 49.7765 32.7844C49.7765 32.849 49.7923 32.9135 49.8238 32.962C49.8396 33.0104 49.8711 33.0427 49.9184 33.075C49.9657 33.1073 50.0287 33.1235 50.1075 33.1235C50.1863 33.1235 50.2809 33.0912 50.3912 33.0266C50.4858 32.9458 50.5961 32.8651 50.7065 32.7521C50.8168 32.639 50.9271 32.526 51.0217 32.3968C51.132 32.2515 51.2266 32.1223 51.3212 31.977C51.4 31.8478 51.4788 31.7186 51.5419 31.6055C51.6049 31.4764 51.6522 31.3795 51.668 31.3149C51.6995 31.218 51.731 31.1211 51.7468 31.0242C51.7625 30.9273 51.7625 30.8304 51.7625 30.7497C51.7625 30.6367 51.7468 30.5398 51.6995 30.459ZM52.5033 32.7198C52.4088 32.8328 52.3142 32.9458 52.2039 33.0427C52.0935 33.1396 51.9674 33.2204 51.8571 33.3011C51.731 33.3657 51.6207 33.398 51.5103 33.398C51.4473 33.398 51.4158 33.3818 51.3685 33.3657C51.3369 33.3334 51.3212 33.3173 51.2897 33.2688C51.2739 33.2365 51.2581 33.2042 51.2581 33.1558C51.2581 33.1073 51.2424 33.0589 51.2424 33.0104C51.2424 32.8328 51.2739 32.6552 51.3212 32.4937C51.3685 32.3322 51.4158 32.1546 51.463 31.9931C51.4 32.1061 51.3212 32.2515 51.1951 32.413C51.0848 32.5744 50.9587 32.7198 50.8168 32.8651C50.6749 33.0266 50.5331 33.1396 50.3755 33.2527C50.2178 33.3495 50.076 33.398 49.9341 33.398C49.8238 33.398 49.7135 33.3818 49.6504 33.3495C49.5716 33.3011 49.5086 33.2527 49.4455 33.1719C49.3982 33.1073 49.3667 33.0266 49.3509 32.9297C49.3194 32.849 49.3036 32.7521 49.3036 32.639C49.3036 32.4614 49.3352 32.2838 49.3825 32.1061C49.4297 31.9124 49.5086 31.7186 49.6031 31.5409C49.6819 31.3633 49.7923 31.2018 49.9184 31.0242C50.0602 30.8789 50.1863 30.7335 50.3439 30.6044C50.5016 30.4913 50.6592 30.3944 50.8326 30.3137C51.0059 30.2491 51.1793 30.2168 51.3685 30.2168C51.5103 30.2168 51.6207 30.2491 51.7152 30.2975C51.8256 30.3621 51.8886 30.459 51.9359 30.5882L52.2039 30.2975H52.4245L51.7152 32.5906C51.6995 32.639 51.6837 32.7036 51.6837 32.7521C51.668 32.8005 51.668 32.8651 51.668 32.9297C51.668 32.962 51.668 33.0104 51.6837 33.0589C51.6995 33.0912 51.731 33.1235 51.794 33.1235C51.8413 33.1235 51.9201 33.0912 51.999 33.0266C52.0778 32.962 52.1723 32.8974 52.2511 32.8005C52.33 32.7198 52.4088 32.639 52.4876 32.5421C52.5506 32.4614 52.6137 32.3968 52.6452 32.3484L52.724 32.413C52.661 32.5098 52.5979 32.6067 52.5033 32.7198Z" fill="#21002B"/>
<path d="M57.2003 30.7012C57.1531 30.7497 57.0742 30.7658 56.9954 30.7658C56.9482 30.7658 56.8851 30.7658 56.8378 30.7335C56.7748 30.7174 56.7275 30.6851 56.6802 30.6528C56.5226 30.7658 56.3807 30.895 56.2389 31.0242C56.0812 31.1695 55.9551 31.3149 55.8448 31.4764C55.8763 31.5409 55.8921 31.6217 55.9236 31.7186C55.9551 31.8316 55.9867 31.9447 56.034 32.0738C56.0655 32.1869 56.1128 32.3161 56.1601 32.4452C56.2073 32.5744 56.2704 32.6875 56.3334 32.8005C56.3807 32.8974 56.4438 32.9943 56.5226 33.0589C56.5856 33.1235 56.6487 33.1558 56.7275 33.1558C56.8063 33.1558 56.8851 33.1396 56.9482 33.0912C57.0112 33.0589 57.0742 33.0104 57.1215 32.962L57.1846 33.0427C57.09 33.1396 56.9797 33.2365 56.8536 33.3011C56.7432 33.3657 56.6014 33.398 56.4595 33.398C56.3019 33.398 56.1758 33.3334 56.0497 33.2042C55.9394 33.075 55.8448 32.9297 55.766 32.7359C55.6872 32.5583 55.6241 32.3645 55.5611 32.1707C55.5138 31.9608 55.4665 31.7993 55.4192 31.654C55.5138 31.5571 55.6241 31.4279 55.766 31.2664C55.9079 31.1049 56.0655 30.9596 56.2231 30.8143C56.3807 30.6528 56.5383 30.5236 56.7117 30.4106C56.8693 30.2975 57.0112 30.2329 57.1531 30.2168C57.1846 30.2491 57.2161 30.2814 57.2476 30.3298C57.2792 30.3783 57.2949 30.4267 57.2949 30.4913C57.2949 30.5721 57.2634 30.6528 57.2003 30.7012ZM55.5611 30.8304L54.7888 33.3173H54.3317L55.041 31.0242C55.0882 30.9112 55.104 30.8143 55.104 30.7174C55.104 30.6851 55.104 30.6528 55.0882 30.6044C55.0725 30.5721 55.041 30.5559 55.0094 30.5559C54.9464 30.5559 54.8833 30.5882 54.8045 30.6528C54.7257 30.7174 54.6469 30.782 54.5681 30.8627C54.4893 30.9596 54.4105 31.0404 54.3474 31.1211C54.2844 31.2018 54.2371 31.2664 54.2056 31.3149L54.111 31.2341C54.1583 31.1534 54.2371 31.0565 54.3159 30.9435C54.4105 30.8304 54.505 30.7174 54.6154 30.6044C54.7257 30.5075 54.836 30.4106 54.9464 30.3298C55.0567 30.2491 55.167 30.2168 55.2616 30.2168C55.372 30.2168 55.4508 30.2491 55.5138 30.3298C55.5611 30.4106 55.5926 30.5075 55.5926 30.6205C55.5926 30.6851 55.5769 30.7497 55.5611 30.8304Z" fill="#21002B"/>
<path d="M59.3755 30.8143C59.3597 30.7336 59.344 30.6528 59.2967 30.5721C59.2494 30.5075 59.2021 30.4429 59.1233 30.4106C59.0602 30.3622 58.9657 30.346 58.8553 30.346C58.7135 30.346 58.5874 30.3783 58.477 30.4591C58.3509 30.5236 58.2406 30.6205 58.1618 30.7497C58.0672 30.8789 57.9727 31.0081 57.9096 31.1696C57.8308 31.3149 57.7835 31.4764 57.7362 31.6379C57.6889 31.7994 57.6574 31.9608 57.6259 32.1223C57.6101 32.2677 57.5944 32.3968 57.5944 32.5099C57.5944 32.6068 57.5944 32.7037 57.6101 32.8005C57.6417 32.8813 57.6574 32.962 57.7047 33.0266C57.7362 33.1074 57.7993 33.1558 57.8623 33.2042C57.9411 33.2365 58.0357 33.2688 58.1303 33.2688C58.2721 33.2688 58.414 33.2204 58.5243 33.1558C58.6504 33.0751 58.745 32.9782 58.8396 32.849C58.9341 32.7359 59.0129 32.5906 59.0918 32.4453C59.1548 32.2838 59.2179 32.1223 59.2651 31.9608C59.3124 31.7994 59.344 31.654 59.3755 31.4925C59.3912 31.3472 59.407 31.2019 59.407 31.0888C59.407 31.0081 59.3912 30.9112 59.3755 30.8143ZM59.801 31.6863C59.7695 31.8478 59.7065 32.0254 59.6277 32.1869C59.5331 32.3484 59.4385 32.5099 59.3282 32.6552C59.2179 32.8005 59.0918 32.9297 58.9499 33.0428C58.808 33.1558 58.6662 33.2365 58.5086 33.3011C58.3509 33.3657 58.1776 33.398 58.0042 33.398C57.7047 33.398 57.484 33.3173 57.3422 33.1397C57.2003 32.962 57.1373 32.7198 57.1373 32.4291C57.1373 32.1869 57.1846 31.9285 57.2791 31.6702C57.3737 31.4118 57.5156 31.1696 57.6732 30.9435C57.8466 30.7336 58.0515 30.5559 58.2721 30.4106C58.4928 30.2814 58.745 30.2007 58.9972 30.2007C59.2967 30.2007 59.5173 30.2976 59.6592 30.4752C59.801 30.6528 59.8799 30.8789 59.8799 31.1696C59.8799 31.3311 59.8483 31.5087 59.801 31.6863Z" fill="#21002B"/>
<path d="M63.5051 32.6711C63.4263 32.7842 63.3159 32.8972 63.2056 33.0103C63.111 33.1072 63.0007 33.204 62.8746 33.2848C62.7643 33.3655 62.6697 33.3978 62.5751 33.3978C62.449 33.3978 62.3702 33.3655 62.3229 33.2686C62.2756 33.1879 62.2441 33.091 62.2441 32.9941C62.2441 32.9457 62.2599 32.8649 62.2756 32.7519C62.3072 32.655 62.3387 32.5258 62.3702 32.3966C62.4175 32.2513 62.4648 32.1221 62.4963 31.9606C62.5436 31.8153 62.5909 31.67 62.6382 31.5246C62.6854 31.3793 62.7327 31.2501 62.7643 31.1371C62.8115 31.024 62.8273 30.9433 62.8588 30.8787L61.3772 32.9457H61.2038L61.1092 30.7818H61.0935C61.062 30.911 61.0147 31.0563 60.9674 31.2178C60.9201 31.3954 60.8571 31.5569 60.794 31.7507C60.7152 31.9283 60.6364 32.106 60.5418 32.2997C60.463 32.4774 60.3684 32.6389 60.2581 32.8003C60.1478 32.9457 60.0374 33.091 59.9271 33.1879C59.801 33.3009 59.6749 33.3655 59.533 33.3978C59.4227 33.3332 59.3754 33.2363 59.3754 33.1072C59.3754 33.0103 59.3912 32.9295 59.4542 32.8649C59.5015 32.8165 59.5646 32.768 59.6276 32.7357C59.7064 32.7196 59.7852 32.7034 59.8798 32.6873C59.9586 32.6873 60.0374 32.6711 60.1162 32.6711C60.1951 32.5904 60.2581 32.4935 60.3211 32.3805C60.3842 32.2513 60.4472 32.1221 60.5103 31.9929C60.5733 31.8476 60.6364 31.7023 60.6837 31.5408C60.7467 31.3954 60.794 31.234 60.8413 31.0886C60.8886 30.9433 60.9201 30.798 60.9674 30.6526C60.9989 30.5234 61.0304 30.3943 61.0462 30.2974H61.5663L61.6609 32.2513L63.048 30.2974H63.4893L62.78 32.5904C62.7485 32.6873 62.717 32.8003 62.717 32.8972C62.717 32.9295 62.7327 32.9618 62.7485 32.9941C62.7485 33.0264 62.78 33.0587 62.8273 33.0587C62.8746 33.0587 62.9534 33.0264 63.0165 32.9618C63.0953 32.8972 63.1741 32.8165 63.2529 32.7357C63.3317 32.655 63.4105 32.5743 63.4735 32.4935C63.5366 32.3966 63.5996 32.332 63.6312 32.2836L63.71 32.3805C63.6627 32.4612 63.5996 32.5581 63.5051 32.6711Z" fill="#21002B"/>
<path d="M67.0517 32.6713C66.9571 32.7844 66.8625 32.8974 66.7522 33.0104C66.6419 33.1073 66.5315 33.2042 66.4212 33.285C66.3109 33.3657 66.2005 33.398 66.106 33.398C65.9956 33.398 65.9168 33.3657 65.8538 33.285C65.8065 33.2042 65.7749 33.1073 65.7749 32.9943C65.7749 32.9297 65.7907 32.8651 65.8065 32.7844L66.3109 31.1857C66.3266 31.1211 66.3424 31.0404 66.3739 30.9758C66.3897 30.895 66.3897 30.8143 66.3897 30.7497C66.3897 30.6851 66.3739 30.6205 66.3581 30.5721C66.3424 30.5236 66.2951 30.4913 66.2163 30.4913C66.1375 30.4913 66.0587 30.5236 65.9641 30.6044C65.8695 30.6689 65.7749 30.7658 65.6646 30.8789C65.57 30.9919 65.4597 31.1049 65.3494 31.2503C65.2548 31.3956 65.1602 31.5248 65.0657 31.654C64.9868 31.7993 64.908 31.9124 64.845 32.0415C64.7819 32.1546 64.7504 32.2353 64.7189 32.2999L64.4037 33.3173H63.9623L64.6558 31.0242C64.6716 30.9758 64.6874 30.9112 64.7031 30.8627C64.7189 30.7981 64.7189 30.7497 64.7189 30.7012C64.7189 30.6528 64.7031 30.6044 64.6874 30.5559C64.6716 30.5075 64.6401 30.4913 64.5928 30.4913C64.5298 30.4913 64.4667 30.5236 64.3721 30.5882C64.2933 30.6528 64.2145 30.7174 64.1357 30.8143C64.0411 30.895 63.9623 30.9758 63.8993 31.0727C63.8205 31.1534 63.7732 31.218 63.7417 31.2664L63.6628 31.2018C63.7101 31.1049 63.7889 31.0081 63.8835 30.895C63.9781 30.782 64.0727 30.6689 64.183 30.5721C64.2933 30.4752 64.4194 30.3944 64.5298 30.3137C64.6558 30.2491 64.7662 30.2168 64.8765 30.2168C64.9238 30.2168 64.9711 30.2329 65.0026 30.2491C65.0341 30.2652 65.0657 30.2975 65.0814 30.346C65.0972 30.3783 65.1129 30.4106 65.1287 30.459C65.1287 30.5075 65.1287 30.5559 65.1287 30.6044C65.1287 30.782 65.1129 30.9435 65.0657 31.1211C65.0184 31.2987 64.9553 31.4602 64.908 31.6217C64.9553 31.5571 65.0026 31.4602 65.0657 31.3633C65.1445 31.2664 65.2075 31.1695 65.3021 31.0565C65.3809 30.9596 65.4755 30.8466 65.57 30.7497C65.6804 30.6528 65.7749 30.5559 65.8695 30.4752C65.9799 30.3944 66.0744 30.3298 66.169 30.2814C66.2636 30.2329 66.3581 30.2168 66.4527 30.2168C66.5315 30.2168 66.5946 30.2329 66.6419 30.2491C66.7049 30.2814 66.7364 30.3137 66.7837 30.3621C66.8152 30.3944 66.831 30.459 66.8468 30.5075C66.8783 30.5721 66.8941 30.6367 66.8941 30.7012L66.3266 32.5906C66.3109 32.639 66.2951 32.6875 66.2793 32.7359C66.2636 32.8005 66.2636 32.849 66.2636 32.8974C66.2636 32.9297 66.2636 32.962 66.2793 32.9943C66.2951 33.0427 66.3266 33.0589 66.3581 33.0589C66.4212 33.0589 66.4842 33.0266 66.563 32.962C66.6419 32.8974 66.7207 32.8328 66.7995 32.7521C66.8783 32.6552 66.9571 32.5744 67.0201 32.4937C67.0832 32.413 67.1305 32.3484 67.162 32.2999L67.2566 32.3807C67.2093 32.4614 67.1305 32.5583 67.0517 32.6713Z" fill="#21002B"/>
<path d="M69.747 30.459C69.6998 30.3783 69.6052 30.3298 69.4949 30.3298C69.353 30.3298 69.2111 30.3783 69.0693 30.4429C68.9274 30.5236 68.8013 30.6205 68.6752 30.7497C68.5491 30.8789 68.4388 31.0081 68.3285 31.1695C68.2181 31.331 68.1393 31.4925 68.0605 31.654C67.9817 31.8155 67.9186 31.9931 67.8871 32.1546C67.8398 32.3161 67.8241 32.4614 67.8241 32.5906C67.8241 32.6552 67.8241 32.7198 67.8241 32.7844C67.8398 32.849 67.8556 32.9135 67.8714 32.962C67.9029 33.0104 67.9344 33.0427 67.9817 33.075C68.029 33.1073 68.092 33.1235 68.1708 33.1235C68.2496 33.1235 68.3442 33.0912 68.4388 33.0266C68.5491 32.9458 68.6595 32.8651 68.7698 32.7521C68.8644 32.639 68.9747 32.526 69.085 32.3968C69.1954 32.2515 69.2899 32.1223 69.3688 31.977C69.4633 31.8478 69.5421 31.7186 69.5894 31.6055C69.6682 31.4764 69.6998 31.3795 69.7313 31.3149C69.7628 31.218 69.7786 31.1211 69.7943 31.0242C69.8101 30.9273 69.8259 30.8304 69.8259 30.7497C69.8259 30.6367 69.7943 30.5398 69.747 30.459ZM70.5509 32.7198C70.4721 32.8328 70.3618 32.9458 70.2514 33.0427C70.1411 33.1396 70.0308 33.2204 69.9047 33.3011C69.7786 33.3657 69.6682 33.398 69.5579 33.398C69.5106 33.398 69.4633 33.3818 69.4318 33.3657C69.4003 33.3334 69.3688 33.3173 69.353 33.2688C69.3372 33.2365 69.3215 33.2042 69.3215 33.1558C69.3057 33.1073 69.3057 33.0589 69.3057 33.0104C69.3057 32.8328 69.3215 32.6552 69.3688 32.4937C69.416 32.3322 69.4791 32.1546 69.5264 31.9931C69.4633 32.1061 69.3688 32.2515 69.2584 32.413C69.1481 32.5744 69.022 32.7198 68.8801 32.8651C68.7383 33.0266 68.5807 33.1396 68.423 33.2527C68.2654 33.3495 68.1236 33.398 67.9817 33.398C67.8714 33.398 67.7768 33.3818 67.698 33.3495C67.6192 33.3011 67.5561 33.2527 67.5088 33.1719C67.4615 33.1073 67.4143 33.0266 67.3985 32.9297C67.3827 32.849 67.367 32.7521 67.367 32.639C67.367 32.4614 67.3985 32.2838 67.4458 32.1061C67.4931 31.9124 67.5561 31.7186 67.6507 31.5409C67.7453 31.3633 67.8556 31.2018 67.9817 31.0242C68.1078 30.8789 68.2496 30.7335 68.4073 30.6044C68.5491 30.4913 68.7225 30.3944 68.8801 30.3137C69.0535 30.2491 69.2427 30.2168 69.4318 30.2168C69.5579 30.2168 69.684 30.2491 69.7786 30.2975C69.8731 30.3621 69.9519 30.459 69.9992 30.5882L70.2514 30.2975H70.4721L69.7786 32.5906C69.7628 32.639 69.747 32.7036 69.7313 32.7521C69.7313 32.8005 69.7155 32.8651 69.7155 32.9297C69.7155 32.962 69.7313 33.0104 69.747 33.0589C69.7628 33.0912 69.7943 33.1235 69.8416 33.1235C69.9047 33.1235 69.9677 33.0912 70.0623 33.0266C70.1411 32.962 70.2199 32.8974 70.3145 32.8005C70.3933 32.7198 70.4721 32.639 70.5351 32.5421C70.614 32.4614 70.6612 32.3968 70.6928 32.3484L70.7716 32.413C70.7243 32.5098 70.6455 32.6067 70.5509 32.7198Z" fill="#21002B"/>
<path d="M74.1603 32.6713C74.0814 32.7844 73.9869 32.8974 73.8765 33.0104C73.7662 33.1073 73.6559 33.2042 73.5455 33.285C73.4194 33.3657 73.3249 33.398 73.2303 33.398C73.1042 33.398 73.0254 33.3657 72.9781 33.285C72.9308 33.2042 72.8993 33.1073 72.8993 32.9943C72.8993 32.9297 72.9151 32.8651 72.9308 32.7844L73.2461 31.767H71.9851L71.528 33.3173H71.0709L71.7802 31.0242C71.796 30.9758 71.8117 30.9112 71.8275 30.8627C71.8275 30.7981 71.8275 30.7497 71.8275 30.7012C71.8275 30.6528 71.8275 30.6044 71.8117 30.5559C71.796 30.5075 71.7644 30.4913 71.7171 30.4913C71.6541 30.4913 71.5753 30.5236 71.4965 30.5882C71.4177 30.6528 71.3231 30.7174 71.2443 30.8143C71.1655 30.895 71.0867 30.9758 71.0236 31.0727C70.9448 31.1534 70.8975 31.218 70.8502 31.2664L70.7714 31.2018C70.8345 31.1049 70.9133 31.0081 70.9921 30.895C71.0867 30.782 71.197 30.6689 71.3073 30.5721C71.4177 30.4752 71.528 30.3944 71.6541 30.3137C71.7644 30.2491 71.8905 30.2168 71.9851 30.2168C72.0481 30.2168 72.0954 30.2329 72.127 30.2491C72.1585 30.2652 72.19 30.2975 72.2058 30.346C72.2215 30.3783 72.2373 30.4106 72.2373 30.459C72.2531 30.5075 72.2531 30.5559 72.2531 30.6044C72.2531 30.7658 72.2373 30.9112 72.19 31.0565C72.1585 31.218 72.1112 31.3633 72.0639 31.5087C72.0954 31.5087 72.1427 31.5087 72.1742 31.5087C72.2058 31.5087 72.2373 31.5087 72.2688 31.5087C72.3791 31.5087 72.4737 31.5087 72.5841 31.5087C72.6786 31.5248 72.789 31.5248 72.8835 31.5409C72.9466 31.5571 73.0254 31.5732 73.0884 31.5732C73.1515 31.5894 73.2303 31.6055 73.2933 31.6055L73.7032 30.2975H74.1445L73.4352 32.5906C73.4194 32.639 73.4037 32.6875 73.4037 32.7359C73.3879 32.8005 73.3879 32.849 73.3879 32.8974C73.3879 32.9297 73.3879 32.962 73.4037 33.0104C73.4194 33.0427 73.4352 33.0589 73.4825 33.0589C73.5455 33.0589 73.6086 33.0266 73.6874 32.962C73.7662 32.8974 73.845 32.8328 73.9238 32.7521C74.0026 32.6552 74.0657 32.5744 74.1445 32.4937C74.2075 32.413 74.2548 32.3484 74.2863 32.2999L74.3809 32.3807C74.3179 32.4614 74.2548 32.5583 74.1603 32.6713Z" fill="#21002B"/>
<path d="M77.754 32.7198C77.6595 32.8328 77.5491 32.9458 77.4388 33.0427C77.3284 33.1396 77.2181 33.2204 77.092 33.3011C76.9817 33.3657 76.8556 33.398 76.761 33.398C76.698 33.398 76.6507 33.398 76.6192 33.3657C76.5876 33.3495 76.5561 33.3173 76.5403 33.2688C76.5246 33.2365 76.5088 33.2042 76.5088 33.1558C76.4931 33.1073 76.4931 33.0589 76.4931 33.0104C76.4931 32.8328 76.5246 32.6713 76.5719 32.4937C76.6192 32.3161 76.6664 32.1546 76.7137 31.9931C76.6822 32.0577 76.6192 32.1546 76.5561 32.2515C76.4931 32.3484 76.4143 32.4452 76.3197 32.5583C76.2409 32.6552 76.1463 32.7682 76.0517 32.8651C75.9572 32.962 75.8468 33.0589 75.7522 33.1396C75.6577 33.2204 75.5473 33.285 75.4528 33.3334C75.3582 33.3818 75.2636 33.398 75.1691 33.398C75.0902 33.398 75.0272 33.3818 74.9799 33.3657C74.9326 33.3334 74.8853 33.3011 74.8538 33.2527C74.8223 33.2204 74.7908 33.1558 74.775 33.1073C74.7592 33.0427 74.7435 32.9781 74.7277 32.9135L75.3109 31.0242C75.3267 30.9758 75.3424 30.9273 75.3424 30.8789C75.3582 30.8143 75.3582 30.7658 75.3582 30.7174C75.3582 30.6851 75.3582 30.6528 75.3424 30.6205C75.3267 30.5721 75.3109 30.5559 75.2636 30.5559C75.2006 30.5559 75.1375 30.5882 75.0587 30.6528C74.9799 30.7174 74.9011 30.782 74.8223 30.8627C74.7435 30.9596 74.6804 31.0404 74.6016 31.1211C74.5386 31.2018 74.4913 31.2664 74.4598 31.3149L74.381 31.2341C74.4282 31.1534 74.4913 31.0565 74.5859 30.9435C74.6647 30.8304 74.7592 30.7174 74.8696 30.6044C74.9799 30.5075 75.0902 30.4106 75.2006 30.3298C75.3109 30.2491 75.4212 30.2168 75.5158 30.2168C75.6419 30.2168 75.7207 30.2491 75.768 30.3298C75.8153 30.4106 75.8468 30.5075 75.8468 30.6205C75.8468 30.6851 75.8311 30.7497 75.8153 30.8304L75.3267 32.4291C75.2951 32.4937 75.2794 32.5744 75.2636 32.639C75.2479 32.7198 75.2321 32.8005 75.2321 32.8651C75.2321 32.9297 75.2479 32.9943 75.2636 33.0427C75.2951 33.0912 75.3424 33.1235 75.4212 33.1235C75.4843 33.1235 75.5631 33.0912 75.6577 33.0104C75.7522 32.9458 75.8626 32.849 75.9572 32.7359C76.0675 32.6229 76.1621 32.5098 76.2724 32.3645C76.367 32.2192 76.4773 32.09 76.5561 31.9608C76.6507 31.8155 76.7137 31.7024 76.7768 31.5894C76.8398 31.4602 76.8871 31.3795 76.9029 31.3149L77.2181 30.2975H77.6752L76.9659 32.5906C76.9502 32.639 76.9344 32.7036 76.9186 32.7521C76.9186 32.8005 76.9186 32.8651 76.9186 32.9297C76.9186 32.962 76.9186 33.0104 76.9344 33.0589C76.9502 33.0912 76.9817 33.1235 77.029 33.1235C77.092 33.1235 77.1708 33.0912 77.2496 33.0266C77.3284 32.962 77.423 32.8974 77.5018 32.8005C77.5806 32.7198 77.6595 32.639 77.7225 32.5421C77.8013 32.4614 77.8486 32.3968 77.8959 32.3484L77.9747 32.413C77.9116 32.5098 77.8328 32.6067 77.754 32.7198Z" fill="#21002B"/>
<path d="M80.9066 29.3288C80.8277 29.4418 80.7174 29.5225 80.6071 29.6033C80.4967 29.6679 80.3707 29.7325 80.2446 29.7809C80.1185 29.8293 80.0081 29.8455 79.882 29.8455C79.7244 29.8455 79.5825 29.7971 79.488 29.684C79.3934 29.571 79.3461 29.4256 79.3461 29.2642C79.3461 29.1027 79.3776 28.9573 79.4407 28.812C79.4722 28.812 79.5037 28.812 79.551 28.8282C79.5825 28.8282 79.6298 28.8282 79.6771 28.8443C79.7086 28.8605 79.7402 28.8766 79.7717 28.8928C79.8032 28.925 79.819 28.9573 79.819 28.9896C79.819 29.0219 79.8032 29.0542 79.7875 29.0865C79.7717 29.1188 79.7402 29.135 79.7086 29.1673C79.6771 29.1834 79.6456 29.1996 79.5983 29.2157C79.5668 29.2319 79.5353 29.2319 79.5037 29.2319C79.551 29.3288 79.6141 29.4095 79.7244 29.4418C79.819 29.4902 79.9293 29.5064 80.0239 29.5064C80.213 29.5064 80.4179 29.4579 80.6071 29.3611C80.7962 29.2642 80.9381 29.135 81.0642 28.9573L81.143 29.0219C81.0799 29.135 81.0011 29.2319 80.9066 29.3288ZM81.2848 32.7199C81.1903 32.8329 81.0957 32.946 80.9854 33.0428C80.875 33.1397 80.7489 33.2205 80.6386 33.3012C80.5125 33.3658 80.4022 33.3981 80.2918 33.3981C80.2446 33.3981 80.1973 33.3981 80.1657 33.3658C80.1342 33.3497 80.1027 33.3174 80.0869 33.2689C80.0712 33.2366 80.0554 33.2043 80.0396 33.1559C80.0396 33.1074 80.0396 33.059 80.0396 33.0105C80.0396 32.8329 80.0554 32.6714 80.1027 32.4938C80.15 32.3162 80.1973 32.1547 80.2603 31.9932C80.213 32.0578 80.1657 32.1547 80.0869 32.2516C80.0239 32.3485 79.9608 32.4454 79.8663 32.5584C79.7875 32.6553 79.6929 32.7683 79.5983 32.8652C79.488 32.9621 79.3934 33.059 79.2988 33.1397C79.1885 33.2205 79.0939 33.2851 78.9994 33.3335C78.9048 33.382 78.8102 33.3981 78.7156 33.3981C78.6368 33.3981 78.5738 33.382 78.5265 33.3658C78.4634 33.3335 78.4319 33.3012 78.3846 33.2528C78.3531 33.2205 78.3373 33.1559 78.3216 33.1074C78.2901 33.0428 78.2743 32.9782 78.2743 32.9137L78.8417 31.0243C78.8575 30.9759 78.8733 30.9274 78.889 30.879C78.9048 30.8144 78.9048 30.7659 78.9048 30.7175C78.9048 30.6852 78.9048 30.6529 78.889 30.6206C78.8733 30.5722 78.8417 30.556 78.8102 30.556C78.7472 30.556 78.6841 30.5883 78.6053 30.6529C78.5265 30.7175 78.4477 30.7821 78.3689 30.8628C78.2901 30.9597 78.2113 31.0405 78.1482 31.1212C78.0852 31.2019 78.0379 31.2665 78.0063 31.315L77.9118 31.2342C77.9591 31.1535 78.0379 31.0566 78.1167 30.9436C78.2113 30.8305 78.3058 30.7175 78.4162 30.6045C78.5265 30.5076 78.6368 30.4107 78.7472 30.3299C78.8575 30.2492 78.9678 30.2169 79.0624 30.2169C79.1727 30.2169 79.2515 30.2492 79.3146 30.3299C79.3619 30.4107 79.3934 30.5076 79.3934 30.6206C79.3934 30.6852 79.3776 30.7498 79.3619 30.8305L78.8575 32.4292C78.8417 32.4938 78.8102 32.5745 78.7944 32.6391C78.7787 32.7199 78.7787 32.8006 78.7787 32.8652C78.7787 32.9298 78.7944 32.9944 78.8102 33.0428C78.826 33.0913 78.8733 33.1236 78.9521 33.1236C79.0309 33.1236 79.1097 33.0913 79.2043 33.0105C79.2988 32.946 79.3934 32.8491 79.5037 32.736C79.5983 32.623 79.7086 32.51 79.8032 32.3646C79.9136 32.2193 80.0081 32.0901 80.1027 31.9609C80.1815 31.8156 80.2603 31.7025 80.3234 31.5895C80.3864 31.4603 80.4179 31.3796 80.4495 31.315L80.7647 30.2976H81.206L80.5125 32.5907C80.481 32.6391 80.481 32.7037 80.4652 32.7522C80.4495 32.8006 80.4495 32.8652 80.4495 32.9298C80.4495 32.9621 80.4652 33.0105 80.481 33.059C80.481 33.0913 80.5283 33.1236 80.5756 33.1236C80.6386 33.1236 80.7017 33.0913 80.7805 33.0267C80.875 32.9621 80.9538 32.8975 81.0327 32.8006C81.1272 32.7199 81.206 32.6391 81.2691 32.5422C81.3321 32.4615 81.3952 32.3969 81.4267 32.3485L81.5055 32.4131C81.4582 32.51 81.3794 32.6068 81.2848 32.7199Z" fill="#21002B"/>
<path d="M92.192 15.7639C92.3654 15.8608 92.523 15.9577 92.6491 16.0384C92.7909 16.1191 92.9013 16.1999 93.0116 16.2483C93.1219 16.3129 93.2165 16.3614 93.3268 16.4098C93.4372 16.4744 93.5475 16.5067 93.6736 16.539V20.8829C93.1692 21.0928 92.7752 21.222 92.4599 21.3027C92.1447 21.3673 91.7664 21.4158 91.3093 21.4158C90.4581 21.4158 90.0168 20.8829 90.0168 19.8332V16.539C90.2217 16.4906 90.3793 16.4421 90.4897 16.4098C90.6 16.3614 90.7103 16.3129 90.8049 16.2483C90.8995 16.1837 90.9941 16.103 91.0886 16.0223C91.199 15.9577 91.3251 15.8608 91.5142 15.7639V14.7627H82.0728V15.7639C82.4195 15.99 82.782 16.1514 83.1603 16.2483C83.5386 16.3614 83.9169 16.4583 84.2952 16.539V21.5449C84.5001 21.9002 84.8153 22.2393 85.2094 22.53C85.6034 22.8206 86.0448 23.0629 86.5176 23.2566C87.0063 23.4666 87.4949 23.6119 87.9677 23.7088C88.4564 23.8057 88.8977 23.8541 89.2918 23.8541C89.5912 23.8541 89.938 23.838 90.3478 23.7895C90.7419 23.7411 91.1517 23.6765 91.5772 23.5958C91.9871 23.5312 92.3811 23.4343 92.7594 23.3212C93.1219 23.2082 93.4372 23.0952 93.6736 22.966V26.3087C93.2953 26.3894 92.8382 26.4863 92.3023 26.5832C91.7664 26.6801 91.3251 26.8415 90.9783 27.0515V28.0527H101.633V27.0515C101.271 26.8415 100.908 26.6801 100.546 26.5832C100.183 26.4863 99.805 26.3894 99.411 26.3087V16.539C99.7893 16.4583 100.168 16.3614 100.546 16.2483C100.924 16.1514 101.287 15.99 101.633 15.7639V14.7627H92.192V15.7639Z" fill="#21002B"/>
<path d="M112.399 15.7639C112.982 16.1191 113.55 16.3614 114.117 16.5228V17.2657L110.066 22.207V16.5228C110.665 16.3614 111.233 16.1191 111.8 15.7639V14.7627H102.359V15.7639C102.674 15.9577 103.036 16.103 103.478 16.216C103.919 16.3291 104.282 16.426 104.581 16.5228V26.3087C104.439 26.341 104.266 26.3894 104.061 26.4378C103.872 26.4863 103.667 26.5347 103.462 26.5993C103.241 26.6801 103.052 26.7447 102.863 26.8254C102.674 26.89 102.501 26.9707 102.359 27.0515V28.0527H111.8V27.0515C111.485 26.8738 111.185 26.7285 110.917 26.5993C110.634 26.4863 110.35 26.3894 110.066 26.3087V25.5658L114.117 20.5599V26.3087C113.534 26.454 112.966 26.7124 112.399 27.0515V28.0527H121.809V27.0515C121.509 26.8738 121.131 26.7285 120.69 26.5993C120.249 26.4863 119.886 26.3894 119.602 26.3087V16.5228C119.744 16.4906 119.918 16.4421 120.107 16.3937C120.296 16.3452 120.501 16.2806 120.721 16.216C120.926 16.1514 121.131 16.0868 121.32 16.0061C121.494 15.9254 121.667 15.8446 121.809 15.7639V14.7627H112.399V15.7639Z" fill="#21002B"/>
<path d="M128.208 11.9691C128.713 12.3567 129.296 12.6474 129.989 12.8734C130.683 13.0834 131.455 13.1964 132.29 13.1964C133.142 13.1964 133.914 13.0834 134.592 12.8734C135.285 12.6474 135.884 12.3567 136.373 11.9691C136.877 11.5816 137.256 11.1456 137.523 10.6288C137.791 10.1121 137.933 9.54692 137.933 8.91714C137.933 8.62647 137.886 8.25506 137.744 7.91595V7.8998C137.697 7.78676 137.65 7.68987 137.587 7.60913V7.59298C137.35 7.27002 136.972 7.04395 136.546 7.04395C135.853 7.04395 135.285 7.62528 135.285 8.35195C135.285 8.69106 135.411 8.99788 135.616 9.22395C135.616 9.2401 135.632 9.2401 135.632 9.2401C135.664 9.28855 135.711 9.32084 135.758 9.35314C135.947 9.53077 136.152 9.69225 136.373 9.80529C136.341 9.90218 136.184 9.98292 135.916 10.0798C135.648 10.1605 135.317 10.2251 134.923 10.2897C134.544 10.3382 134.119 10.3866 133.646 10.4189C133.189 10.4512 132.732 10.4674 132.29 10.4674C131.865 10.4674 131.408 10.4512 130.935 10.4189C130.478 10.3866 130.052 10.3382 129.658 10.2897C129.28 10.2251 128.949 10.1605 128.681 10.0798C128.413 9.98292 128.255 9.90218 128.224 9.80529C128.397 9.7084 128.618 9.56306 128.776 9.43388C129.107 9.2078 129.343 8.8041 129.343 8.35195C129.343 7.62528 128.776 7.04395 128.066 7.04395C127.735 7.04395 127.436 7.18928 127.215 7.39921C127.215 7.38306 127.215 7.38306 127.215 7.38306C127.199 7.39921 127.199 7.39921 127.184 7.41535C127.105 7.49609 127.042 7.57684 126.994 7.67373C126.947 7.73832 126.9 7.80291 126.853 7.9321C126.727 8.25506 126.663 8.62647 126.663 8.91714C126.663 9.54692 126.805 10.1121 127.073 10.6288C127.341 11.1456 127.72 11.5816 128.208 11.9691Z" fill="#21002B"/>
<path d="M140.298 16.3937C140.487 16.3452 140.692 16.2806 140.897 16.216C141.117 16.1514 141.306 16.0868 141.496 16.0061C141.685 15.9254 141.858 15.8446 142 15.7639V14.7627H132.59V15.7639C133.173 16.1191 133.741 16.3614 134.292 16.5228V17.2657L130.241 22.207V16.5228C130.856 16.3614 131.424 16.1191 131.975 15.7639V14.7627H122.55V15.7639C122.849 15.9577 123.227 16.103 123.669 16.216C124.11 16.3291 124.473 16.426 124.756 16.5228V26.3087C124.614 26.341 124.441 26.3894 124.252 26.4378C124.063 26.4863 123.858 26.5347 123.637 26.5993C123.432 26.6801 123.227 26.7447 123.038 26.8254C122.849 26.89 122.691 26.9707 122.55 27.0515V28.0527H131.975V27.0515C131.676 26.8738 131.376 26.7285 131.108 26.5993C130.825 26.4863 130.541 26.3894 130.241 26.3087V25.5658L134.292 20.5599V26.3087C133.725 26.454 133.157 26.7124 132.59 27.0515V28.0527H142V27.0515C141.685 26.8738 141.322 26.7285 140.881 26.5993C140.44 26.4863 140.077 26.3894 139.778 26.3087V16.5228C139.919 16.4906 140.093 16.4421 140.298 16.3937Z" fill="#21002B"/>
<path d="M46.7502 22.6432C46.561 22.2556 46.3088 21.9326 46.0093 21.6743C45.6941 21.3997 45.3473 21.1898 44.9691 21.0283C44.5908 20.8669 44.1967 20.7538 43.7869 20.6731C44.1021 20.5762 44.4174 20.447 44.7326 20.2694C45.0636 20.0917 45.3631 19.8657 45.6311 19.6234C45.899 19.3651 46.1197 19.0906 46.2931 18.7837C46.4507 18.4769 46.5453 18.154 46.5453 17.8148C46.5453 17.1528 46.4034 16.5876 46.1039 16.1354C45.8044 15.6833 45.4104 15.3119 44.8902 15.0212C44.3859 14.7467 43.7869 14.5368 43.1091 14.4237C42.4471 14.3107 41.7221 14.2461 40.934 14.2461C40.4138 14.2461 39.8622 14.2784 39.279 14.343C38.6958 14.4076 38.1126 14.5045 37.5294 14.6175C36.9619 14.7144 36.757 14.779 35.7167 15.0374C34.8814 15.2473 34.1721 16.0547 34.1721 16.9751C34.1721 18.0086 34.9917 18.8483 36.0162 18.8483C36.9462 18.8483 37.7185 18.1378 37.8289 17.2174C37.8446 17.2174 37.8446 17.2174 37.8446 17.2012C37.8761 16.9267 37.9077 16.9428 38.0022 16.7006C38.081 16.4422 38.2387 16.2323 38.4436 16.0547C38.6642 15.8771 38.9952 15.7963 39.4681 15.7963C39.941 15.7963 40.3193 15.9417 40.5872 16.2485C40.8552 16.5391 40.9813 17.0074 40.9813 17.6534C40.9813 18.1378 40.8236 18.5415 40.5084 18.8322C40.1932 19.1229 39.7833 19.3651 39.2947 19.5266C38.8061 19.7042 38.286 19.8495 37.7028 19.9464C37.1353 20.0433 36.5837 20.1563 36.0793 20.2855L36.426 21.9972C36.8043 21.9165 37.088 21.8519 37.3087 21.8357C37.5136 21.8035 37.7028 21.7873 37.8919 21.7873C38.3332 21.7873 38.7431 21.8196 39.1529 21.8842C39.5627 21.9326 39.9252 22.0457 40.2247 22.2072C40.5399 22.3686 40.7921 22.5786 40.9655 22.8531C41.1546 23.1276 41.2492 23.4667 41.2492 23.8866C41.2492 24.2741 41.1704 24.5971 41.0128 24.8716C40.8709 25.1461 40.6503 25.3722 40.3823 25.5498C40.1143 25.7275 39.7991 25.8567 39.4366 25.9535C39.0741 26.0343 38.68 26.0827 38.2702 26.0827C37.687 26.0827 37.1196 25.9858 36.5521 25.7921C35.9847 25.5821 35.37 25.3238 34.7395 24.9846L33.9672 26.4864C34.6134 27.0678 35.5118 27.5038 36.6782 27.7944C37.8446 28.0851 39.1371 28.2304 40.5714 28.2304C41.3753 28.2304 42.1792 28.1497 42.9515 27.9721C43.7239 27.7944 44.4016 27.5361 45.0163 27.1808C45.6311 26.8094 46.1197 26.3734 46.4822 25.8405C46.8447 25.3076 47.0339 24.6778 47.0339 23.9673C47.0339 23.4667 46.9393 23.0307 46.7502 22.6432Z" fill="#21002B"/>
<path d="M58.2722 20.4307C58.1934 19.7202 58.0357 19.0581 57.8308 18.4283C57.6259 17.7985 57.3264 17.2656 56.9482 16.8296C56.5856 16.3936 56.097 16.1837 55.5138 16.1837C55.0252 16.1837 54.6311 16.3129 54.3474 16.5874C54.048 16.8619 53.8273 17.2172 53.6697 17.6209C53.5278 18.0407 53.4175 18.4929 53.3544 18.9935C53.3071 19.4779 53.2756 19.9462 53.2756 20.3661C53.2756 20.9151 53.3071 21.5288 53.4017 22.2231C53.4805 22.9175 53.6224 23.5796 53.8273 24.2094C54.048 24.8391 54.3474 25.3559 54.7257 25.7919C55.104 26.2279 55.6084 26.4378 56.2231 26.4378C56.7275 26.4378 57.1215 26.3086 57.4053 26.0341C57.689 25.7596 57.9096 25.4205 58.0515 25.0006C58.1934 24.5969 58.2879 24.1448 58.3352 23.6603C58.3667 23.1759 58.3983 22.7076 58.3983 22.2716C58.3983 21.7387 58.351 21.1251 58.2722 20.4307ZM63.4579 24.5323C62.985 25.4205 62.3703 26.1471 61.598 26.7123C60.8256 27.2614 59.9429 27.6651 58.9342 27.9234C57.9412 28.1818 56.9009 28.311 55.8291 28.311C54.7572 28.311 53.7169 28.1818 52.7239 27.9234C51.7309 27.6651 50.8483 27.2614 50.0759 26.7123C49.3193 26.1471 48.7046 25.4205 48.2318 24.5323C47.7747 23.6442 47.5382 22.5784 47.5382 21.3188C47.5382 20.0754 47.7747 19.0096 48.2318 18.1053C48.7046 17.2172 49.3193 16.4905 50.0759 15.9415C50.8483 15.3763 51.7309 14.9726 52.7239 14.7142C53.7169 14.4558 54.7572 14.3267 55.8291 14.3267C56.9009 14.3267 57.9412 14.4558 58.9342 14.7142C59.9429 14.9726 60.8256 15.3763 61.598 15.9415C62.3703 16.4905 62.985 17.2172 63.4579 18.1053C63.915 19.0096 64.1514 20.0754 64.1514 21.3188C64.1514 22.5784 63.915 23.6442 63.4579 24.5323Z" fill="#21002B"/>
<path d="M74.917 26.0342C74.6332 26.3087 74.2392 26.4379 73.7348 26.4379C73.1043 26.4379 72.5999 26.2279 72.2217 25.7919C71.8276 25.3559 71.5281 24.8392 71.3232 24.2094C71.1026 23.5796 70.9607 22.9176 70.8819 22.2232C70.7873 21.5288 70.7558 20.9152 70.7558 20.3661C70.7558 19.9463 70.7873 19.478 70.8346 18.9935C70.8976 18.4929 71.008 18.0408 71.1656 17.6209C71.3075 17.2172 71.5439 16.862 71.8434 16.5875C72.1271 16.3129 72.5211 16.1838 73.0098 16.1838C73.6087 16.1838 74.0816 16.3937 74.4599 16.8297C74.8382 17.2657 75.1376 17.7986 75.3583 18.4284C75.5632 19.0581 75.7051 19.7202 75.7996 20.4307C75.8784 21.1251 75.91 21.7387 75.91 22.2716C75.91 22.7076 75.8942 23.1759 75.8469 23.6604C75.8154 24.1448 75.7208 24.597 75.579 25.0007C75.4213 25.4205 75.2007 25.7596 74.917 26.0342ZM81.9153 19.042C81.6789 17.7017 81.2848 16.5229 80.7489 15.5055C80.213 14.4882 79.551 13.5839 78.7787 12.8088C77.9906 12.0337 77.1236 11.3877 76.1622 10.871C75.2007 10.3381 74.1919 9.91825 73.1043 9.57914C72.0168 9.25617 70.8976 9.01395 69.7628 8.86862C68.6122 8.72328 67.4615 8.65869 66.3109 8.65869L66.3424 9.67603C67.367 9.74062 68.3757 9.88595 69.3372 10.1282C70.2987 10.3704 71.1971 10.7095 72.0168 11.1617C72.8364 11.6138 73.5614 12.179 74.2234 12.8734C74.6648 13.3578 75.0588 13.8907 75.3741 14.5043C74.7121 14.3913 74.0343 14.3267 73.3408 14.3267C72.2532 14.3267 71.2129 14.4559 70.2041 14.7143C69.1954 14.9726 68.2969 15.3763 67.5403 15.9415C66.768 16.4906 66.1533 17.2172 65.6804 18.1054C65.2076 19.0097 64.9711 20.0755 64.9711 21.3189C64.9711 22.5784 65.2076 23.6442 65.6804 24.5324C66.1533 25.4205 66.768 26.1472 67.5403 26.7124C68.2969 27.2614 69.1954 27.6651 70.2041 27.9235C71.2129 28.1819 72.2532 28.3111 73.3408 28.3111C74.4126 28.3111 75.4529 28.1819 76.4616 27.9235C77.4704 27.6651 78.3688 27.2614 79.1412 26.7124C79.4722 26.4702 79.7559 26.2118 80.0081 25.9373C80.0396 25.905 80.0869 25.8727 80.1027 25.8404C80.9065 25.0491 81.4582 24.0802 81.7892 22.9337C82.1202 21.7872 82.1675 20.4792 81.9153 19.042Z" fill="#21002B"/>
<path d="M0.127014 33.3978H26.1816V33.2363H0.127014V33.3978Z" fill="#21002B"/>
<path d="M0.127014 32.6551H26.1816V32.4937H0.127014V32.6551Z" fill="#21002B"/>
<path d="M26.1659 4.86403L13.1464 0.00341797L0.127014 4.86403V5.02551L13.1464 0.181048L26.1659 5.02551V4.86403Z" fill="#21002B"/>
<path d="M26.1659 5.68776L13.1464 0.827148L0.127014 5.68776V5.84924L13.1464 1.00478L26.1659 5.84924V5.68776Z" fill="#21002B"/>
<path d="M5.51671 8.94961C5.56399 8.93346 5.98957 8.88502 6.77767 8.83658C6.66733 8.83658 6.54124 8.83658 6.39938 8.82043C6.54124 8.82043 6.66733 8.80428 6.77767 8.80428C5.98957 8.75583 5.56399 8.70739 5.51671 8.70739C4.55522 8.5782 3.81441 7.80309 3.70407 6.81805C3.67255 6.65657 3.62526 6.20442 3.57798 5.15479C3.53069 6.20442 3.48341 6.65657 3.46764 6.81805C3.35731 7.80309 2.60073 8.5782 1.65501 8.70739C1.59196 8.70739 1.04029 8.77198 0 8.82043C1.04029 8.86887 1.59196 8.93346 1.65501 8.94961C2.60073 9.06265 3.35731 9.85391 3.46764 10.8228C3.48341 10.9681 3.53069 11.3395 3.56222 12.147C3.57798 12.0339 3.57798 11.9209 3.57798 11.7917C3.59374 11.9209 3.59374 12.0339 3.59374 12.147C3.64103 11.3395 3.68831 10.9681 3.70407 10.8228C3.81441 9.85391 4.55522 9.06265 5.51671 8.94961Z" fill="#41ABE1"/>
<path d="M3.56222 12.147C3.53069 12.9544 3.48341 13.3258 3.46764 13.4711C3.35731 14.44 2.60073 15.2151 1.65501 15.3443C1.59196 15.3605 1.04029 15.4089 0 15.4574C0 15.4735 0 15.4735 0 15.4735C1.04029 15.5219 1.59196 15.5704 1.65501 15.5865C2.60073 15.7157 3.35731 16.4908 3.46764 17.4597C3.48341 17.6051 3.53069 17.9765 3.56222 18.7839C3.57798 18.6708 3.57798 18.5578 3.57798 18.4286C3.59374 18.5578 3.59374 18.6708 3.59374 18.7839C3.64103 17.9765 3.68831 17.6051 3.70407 17.4597C3.81441 16.4908 4.55522 15.7157 5.51671 15.5865C5.56399 15.5865 5.98957 15.5381 6.77767 15.4897C6.66733 15.4735 6.54124 15.4735 6.39938 15.4735C6.39938 15.4735 6.39938 15.4735 6.39938 15.4574C6.54124 15.4574 6.66733 15.4574 6.77767 15.4412C5.98957 15.4089 5.56399 15.3443 5.51671 15.3443C4.55522 15.2151 3.81441 14.44 3.70407 13.4711C3.68831 13.3258 3.64103 12.9544 3.59374 12.147C3.59374 12.26 3.59374 12.373 3.57798 12.5022C3.57798 12.373 3.57798 12.26 3.56222 12.147Z" fill="#41ABE1"/>
<path d="M3.56222 18.7837C3.53069 19.5911 3.48341 19.9625 3.46764 20.1078C3.35731 21.0767 2.60073 21.868 1.65501 21.981C1.59196 21.9972 1.04029 22.0618 0 22.1102C1.04029 22.1587 1.59196 22.2233 1.65501 22.2233C2.60073 22.3524 3.35731 23.1276 3.46764 24.1126C3.48341 24.2579 3.53069 24.6132 3.56222 25.4206C3.57798 25.3237 3.57798 25.1945 3.57798 25.0815C3.59374 25.1945 3.59374 25.3237 3.59374 25.4206C3.64103 24.6132 3.68831 24.2579 3.70407 24.1126C3.81441 23.1276 4.55522 22.3524 5.51671 22.2233C5.56399 22.2233 5.98957 22.1748 6.77767 22.1264C6.66733 22.1264 6.54124 22.1102 6.39938 22.1102C6.54124 22.0941 6.66733 22.0941 6.77767 22.0941C5.98957 22.0456 5.56399 21.9972 5.51671 21.981C4.55522 21.868 3.81441 21.0767 3.70407 20.1078C3.68831 19.9625 3.64103 19.5911 3.59374 18.7837C3.59374 18.8967 3.59374 19.0098 3.57798 19.139C3.57798 19.0098 3.57798 18.8967 3.56222 18.7837Z" fill="#41ABE1"/>
<path d="M11.916 8.94961C11.9633 8.93346 12.3889 8.88502 13.177 8.83658C13.0666 8.83658 12.9405 8.83658 12.7987 8.82043C12.9405 8.82043 13.0666 8.80428 13.177 8.80428C12.3889 8.75583 11.9633 8.70739 11.916 8.70739C10.9545 8.5782 10.2137 7.80309 10.1034 6.81805C10.0718 6.65657 10.0246 6.20442 9.97728 5.15479C9.92999 6.20442 9.88271 6.65657 9.86694 6.81805C9.75661 7.80309 9.00003 8.5782 8.05431 8.70739C8.00703 8.70739 7.58145 8.75583 6.77759 8.80428C6.90368 8.80428 7.02978 8.82043 7.17164 8.82043C7.02978 8.83658 6.90368 8.83658 6.77759 8.83658C7.58145 8.88502 8.00703 8.93346 8.05431 8.94961C9.00003 9.06265 9.75661 9.85391 9.86694 10.8228C9.88271 10.9681 9.92999 11.3395 9.96152 12.147C9.97728 12.0339 9.97728 11.9209 9.97728 11.7917C9.99304 11.9209 9.99304 12.0339 9.99304 12.147C10.0403 11.3395 10.0876 10.9681 10.1034 10.8228C10.2137 9.85391 10.9545 9.06265 11.916 8.94961Z" fill="#41ABE1"/>
<path d="M9.96152 12.147C9.92999 12.9544 9.88271 13.3258 9.86694 13.4711C9.75661 14.44 9.00003 15.2151 8.05431 15.3443C8.00703 15.3443 7.58145 15.4089 6.77759 15.4412C6.90368 15.4574 7.02978 15.4574 7.17164 15.4574C7.17164 15.4735 7.17164 15.4735 7.17164 15.4735C7.02978 15.4735 6.90368 15.4735 6.77759 15.4897C7.58145 15.5381 8.00703 15.5865 8.05431 15.5865C9.00003 15.7157 9.75661 16.4908 9.86694 17.4597C9.88271 17.6051 9.92999 17.9765 9.96152 18.7839C9.97728 18.6708 9.97728 18.5578 9.97728 18.4286C9.99304 18.5578 9.99304 18.6708 9.99304 18.7839C10.0403 17.9765 10.0876 17.6051 10.1034 17.4597C10.2137 16.4908 10.9545 15.7157 11.916 15.5865C11.9633 15.5865 12.3889 15.5381 13.177 15.4897C13.0666 15.4735 12.9405 15.4735 12.7987 15.4735C12.7987 15.4735 12.7987 15.4735 12.7987 15.4574C12.9405 15.4574 13.0666 15.4574 13.177 15.4412C12.3889 15.4089 11.9633 15.3443 11.916 15.3443C10.9545 15.2151 10.2137 14.44 10.1034 13.4711C10.0876 13.3258 10.0403 12.9544 9.99304 12.147C9.99304 12.26 9.99304 12.373 9.97728 12.5022C9.97728 12.373 9.97728 12.26 9.96152 12.147Z" fill="#ED721D"/>
<path d="M9.96152 18.7837C9.92999 19.5911 9.88271 19.9625 9.86694 20.1078C9.75661 21.0767 9.00003 21.868 8.05431 21.981C8.00703 21.9972 7.58145 22.0456 6.77759 22.0941C6.90368 22.0941 7.02978 22.0941 7.17164 22.1102C7.02978 22.1102 6.90368 22.1264 6.77759 22.1264C7.58145 22.1748 8.00703 22.2233 8.05431 22.2233C9.00003 22.3524 9.75661 23.1276 9.86694 24.1126C9.88271 24.2579 9.92999 24.6132 9.96152 25.4206C9.97728 25.3237 9.97728 25.1945 9.97728 25.0815C9.99304 25.1945 9.99304 25.3237 9.99304 25.4206C10.0403 24.6132 10.0876 24.2579 10.1034 24.1126C10.2137 23.1276 10.9545 22.3524 11.916 22.2233C11.9633 22.2233 12.3889 22.1748 13.177 22.1264C13.0666 22.1264 12.9405 22.1102 12.7987 22.1102C12.9405 22.0941 13.0666 22.0941 13.177 22.0941C12.3889 22.0456 11.9633 21.9972 11.916 21.981C10.9545 21.868 10.2137 21.0767 10.1034 20.1078C10.0876 19.9625 10.0403 19.5911 9.99304 18.7837C9.99304 18.8967 9.99304 19.0098 9.97728 19.139C9.97728 19.0098 9.97728 18.8967 9.96152 18.7837Z" fill="#ED721D"/>
<path d="M18.3154 8.94961C18.3627 8.93346 18.7883 8.88502 19.5764 8.83658C19.4661 8.83658 19.34 8.83658 19.1981 8.82043C19.34 8.82043 19.4661 8.80428 19.5764 8.80428C18.7883 8.75583 18.3627 8.70739 18.3154 8.70739C17.354 8.5782 16.6132 7.80309 16.5028 6.81805C16.4713 6.65657 16.424 6.20442 16.3767 5.15479C16.3294 6.20442 16.2821 6.65657 16.2664 6.81805C16.1561 7.80309 15.3995 8.5782 14.4538 8.70739C14.4065 8.70739 13.9809 8.75583 13.177 8.80428C13.3031 8.80428 13.4292 8.82043 13.5711 8.82043C13.4292 8.83658 13.3031 8.83658 13.177 8.83658C13.9809 8.88502 14.4065 8.93346 14.4538 8.94961C15.3995 9.06265 16.1561 9.85391 16.2664 10.8228C16.2821 10.9681 16.3294 11.3395 16.361 12.147C16.3767 12.0339 16.3767 11.9209 16.3767 11.7917C16.3925 11.9209 16.3925 12.0339 16.3925 12.147C16.4398 11.3395 16.4871 10.9681 16.5028 10.8228C16.6132 9.85391 17.354 9.06265 18.3154 8.94961Z" fill="#41ABE1"/>
<path d="M16.361 12.147C16.3294 12.9544 16.2821 13.3258 16.2664 13.4711C16.1561 14.44 15.3995 15.2151 14.4538 15.3443C14.4065 15.3443 13.9809 15.4089 13.177 15.4412C13.3031 15.4574 13.4292 15.4574 13.5711 15.4574C13.5711 15.4735 13.5711 15.4735 13.5711 15.4735C13.4292 15.4735 13.3031 15.4735 13.177 15.4897C13.9809 15.5381 14.4065 15.5865 14.4538 15.5865C15.3995 15.7157 16.1561 16.4908 16.2664 17.4597C16.2821 17.6051 16.3294 17.9765 16.361 18.7839C16.3767 18.6708 16.3767 18.5578 16.3767 18.4286C16.3925 18.5578 16.3925 18.6708 16.3925 18.7839C16.4398 17.9765 16.4871 17.6051 16.5028 17.4597C16.6132 16.4908 17.354 15.7157 18.3154 15.5865C18.3627 15.5865 18.7883 15.5381 19.5764 15.4897C19.4661 15.4735 19.34 15.4735 19.1981 15.4735C19.1981 15.4735 19.1981 15.4735 19.1981 15.4574C19.34 15.4574 19.4661 15.4574 19.5764 15.4412C18.7883 15.4089 18.3627 15.3443 18.3154 15.3443C17.354 15.2151 16.6132 14.44 16.5028 13.4711C16.4871 13.3258 16.4398 12.9544 16.3925 12.147C16.3925 12.26 16.3925 12.373 16.3767 12.5022C16.3767 12.373 16.3767 12.26 16.361 12.147Z" fill="#A68D7E"/>
<path d="M16.361 18.7837C16.3294 19.5911 16.2821 19.9625 16.2664 20.1078C16.1561 21.0767 15.3995 21.868 14.4538 21.981C14.4065 21.9972 13.9809 22.0456 13.177 22.0941C13.3031 22.0941 13.4292 22.0941 13.5711 22.1102C13.4292 22.1102 13.3031 22.1264 13.177 22.1264C13.9809 22.1748 14.4065 22.2233 14.4538 22.2233C15.3995 22.3524 16.1561 23.1276 16.2664 24.1126C16.2821 24.2579 16.3294 24.6132 16.361 25.4206C16.3767 25.3237 16.3767 25.1945 16.3767 25.0815C16.3925 25.1945 16.3925 25.3237 16.3925 25.4206C16.4398 24.6132 16.4871 24.2579 16.5028 24.1126C16.6132 23.1276 17.354 22.3524 18.3154 22.2233C18.3627 22.2233 18.7883 22.1748 19.5764 22.1264C19.4661 22.1264 19.34 22.1102 19.1981 22.1102C19.34 22.0941 19.4661 22.0941 19.5764 22.0941C18.7883 22.0456 18.3627 21.9972 18.3154 21.981C17.354 21.868 16.6132 21.0767 16.5028 20.1078C16.4871 19.9625 16.4398 19.5911 16.3925 18.7837C16.3925 18.8967 16.3925 19.0098 16.3767 19.139C16.3767 19.0098 16.3767 18.8967 16.361 18.7837Z" fill="#ED721D"/>
<path d="M22.7919 12.147C22.8392 11.3395 22.8707 10.9681 22.9022 10.8228C23.0126 9.85391 23.7534 9.06265 24.7149 8.94961C24.7622 8.93346 25.3138 8.86887 26.3541 8.82043H26.3699H26.3541C25.3138 8.77198 24.7622 8.70739 24.7149 8.70739C23.7534 8.5782 23.0126 7.80309 22.9022 6.81805C22.8707 6.65657 22.8234 6.20442 22.7761 5.15479C22.7289 6.20442 22.6816 6.65657 22.6658 6.81805C22.5555 7.80309 21.7989 8.5782 20.8532 8.70739C20.8059 8.70739 20.3803 8.75583 19.5764 8.80428C19.7025 8.80428 19.8286 8.82043 19.9547 8.82043H19.9705H19.9547C19.8286 8.83658 19.7025 8.83658 19.5764 8.83658C20.3803 8.88502 20.8059 8.93346 20.8532 8.94961C21.7989 9.06265 22.5555 9.85391 22.6658 10.8228C22.6816 10.9681 22.7289 11.3395 22.7604 12.147C22.7761 12.0339 22.7761 11.9209 22.7761 11.7917C22.7919 11.9209 22.7919 12.0339 22.7919 12.147Z" fill="#A68D7E"/>
<path d="M26.3541 15.4574C25.3138 15.4089 24.7622 15.3605 24.7149 15.3443C23.7534 15.2151 23.0126 14.44 22.9022 13.4711C22.8707 13.3258 22.8392 12.9544 22.7919 12.147C22.7919 12.26 22.7919 12.373 22.7761 12.5022C22.7761 12.373 22.7761 12.26 22.7604 12.147C22.7289 12.9544 22.6816 13.3258 22.6658 13.4711C22.5555 14.44 21.7989 15.2151 20.8532 15.3443C20.8059 15.3443 20.3803 15.4089 19.5764 15.4412C19.7025 15.4574 19.8286 15.4574 19.9547 15.4574H19.9705C19.9705 15.4735 19.9705 15.4735 19.9705 15.4735H19.9547C19.8286 15.4735 19.7025 15.4735 19.5764 15.4897C20.3803 15.5381 20.8059 15.5865 20.8532 15.5865C21.7989 15.7157 22.5555 16.4908 22.6658 17.4597C22.6816 17.6051 22.7289 17.9765 22.7604 18.7839C22.7761 18.6708 22.7761 18.5578 22.7761 18.4286C22.7919 18.5578 22.7919 18.6708 22.7919 18.7839C22.8392 17.9765 22.8707 17.6051 22.9022 17.4597C23.0126 16.4908 23.7534 15.7157 24.7149 15.5865C24.7622 15.5704 25.3138 15.5219 26.3541 15.4735H26.3699C26.3699 15.4735 26.3699 15.4735 26.3699 15.4574H26.3541Z" fill="#ED721D"/>
<path d="M22.7604 18.7837C22.7288 19.5911 22.6816 19.9625 22.6658 20.1078C22.5555 21.0767 21.7989 21.868 20.8532 21.981C20.8059 21.9972 20.3803 22.0456 19.5764 22.0941C19.7025 22.0941 19.8286 22.0941 19.9547 22.1102C19.8286 22.1102 19.7025 22.1264 19.5764 22.1264C20.3803 22.1748 20.8059 22.2233 20.8532 22.2233C21.7989 22.3524 22.5555 23.1276 22.6658 24.1126C22.6816 24.2579 22.7288 24.6132 22.7604 25.4206C22.7761 25.3237 22.7761 25.1945 22.7761 25.0815C22.7919 25.1945 22.7919 25.3237 22.7919 25.4206C22.8392 24.6132 22.8707 24.2579 22.9022 24.1126C23.0126 23.1276 23.7534 22.3524 24.7149 22.2233C24.7621 22.2233 25.3138 22.1587 26.3541 22.1102C25.3138 22.0618 24.7621 21.9972 24.7149 21.981C23.7534 21.868 23.0126 21.0767 22.9022 20.1078C22.8707 19.9625 22.8392 19.5911 22.7919 18.7837C22.7919 18.8967 22.7919 19.0098 22.7761 19.139C22.7761 19.0098 22.7761 18.8967 22.7604 18.7837Z" fill="#A68D7E"/>
<path d="M6.77767 28.7308C5.98957 28.6823 5.56399 28.6339 5.51671 28.6339C4.55522 28.5047 3.81441 27.7296 3.70407 26.7446C3.68831 26.5992 3.64103 26.2278 3.59374 25.4204C3.59374 25.5334 3.59374 25.6465 3.57798 25.7757C3.57798 25.6465 3.57798 25.5334 3.56222 25.4204C3.53069 26.2278 3.48341 26.5992 3.46764 26.7446C3.35731 27.7296 2.60073 28.5047 1.65501 28.6339C1.59196 28.6339 1.04029 28.6985 0 28.7469C1.04029 28.7954 1.59196 28.86 1.65501 28.8761C2.60073 28.9892 3.35731 29.7643 3.46764 30.7493C3.48341 30.9108 3.53069 31.3629 3.57798 32.4126C3.62526 31.3629 3.67255 30.9108 3.70407 30.7493C3.81441 29.7643 4.55522 28.9892 5.51671 28.8761C5.56399 28.86 5.98957 28.8115 6.77767 28.7631C6.66733 28.7631 6.54124 28.7469 6.39938 28.7469C6.54124 28.7469 6.66733 28.7308 6.77767 28.7308Z" fill="#A68D7E"/>
<path d="M13.177 28.7308C12.3889 28.6823 11.9633 28.6339 11.916 28.6339C10.9545 28.5047 10.2137 27.7296 10.1034 26.7446C10.0876 26.5992 10.0403 26.2278 9.99304 25.4204C9.99304 25.5334 9.99304 25.6465 9.97728 25.7757C9.97728 25.6465 9.97728 25.5334 9.96152 25.4204C9.92999 26.2278 9.88271 26.5992 9.86694 26.7446C9.75661 27.7296 9.00003 28.5047 8.05431 28.6339C8.00703 28.6339 7.58145 28.6823 6.77759 28.7308C6.90368 28.7308 7.02978 28.7469 7.17164 28.7469C7.02978 28.7469 6.90368 28.7631 6.77759 28.7631C7.58145 28.8115 8.00703 28.86 8.05431 28.8761C9.00003 28.9892 9.75661 29.7643 9.86694 30.7493C9.88271 30.9108 9.92999 31.3629 9.97728 32.4126C10.0246 31.3629 10.0718 30.9108 10.1034 30.7493C10.2137 29.7643 10.9545 28.9892 11.916 28.8761C11.9633 28.86 12.3889 28.8115 13.177 28.7631C13.0666 28.7631 12.9405 28.7469 12.7987 28.7469C12.9405 28.7469 13.0666 28.7308 13.177 28.7308Z" fill="#ED721D"/>
<path d="M19.5764 28.7308C18.7883 28.6823 18.3627 28.6339 18.3154 28.6339C17.354 28.5047 16.6132 27.7296 16.5028 26.7446C16.4871 26.5992 16.4398 26.2278 16.3925 25.4204C16.3925 25.5334 16.3925 25.6465 16.3767 25.7757C16.3767 25.6465 16.3767 25.5334 16.361 25.4204C16.3294 26.2278 16.2821 26.5992 16.2664 26.7446C16.1561 27.7296 15.3995 28.5047 14.4538 28.6339C14.4065 28.6339 13.9809 28.6823 13.177 28.7308C13.3031 28.7308 13.4292 28.7469 13.5711 28.7469C13.4292 28.7469 13.3031 28.7631 13.177 28.7631C13.9809 28.8115 14.4065 28.86 14.4538 28.8761C15.3995 28.9892 16.1561 29.7643 16.2664 30.7493C16.2821 30.9108 16.3294 31.3629 16.3767 32.4126C16.424 31.3629 16.4713 30.9108 16.5028 30.7493C16.6132 29.7643 17.354 28.9892 18.3154 28.8761C18.3627 28.86 18.7883 28.8115 19.5764 28.7631C19.4661 28.7631 19.34 28.7469 19.1981 28.7469C19.34 28.7469 19.4661 28.7308 19.5764 28.7308Z" fill="#A68D7E"/>
<path d="M22.9022 26.7446C22.8707 26.5992 22.8392 26.2278 22.7919 25.4204C22.7919 25.5334 22.7919 25.6465 22.7761 25.7757C22.7761 25.6465 22.7761 25.5334 22.7604 25.4204C22.7288 26.2278 22.6816 26.5992 22.6658 26.7446C22.5555 27.7296 21.7989 28.5047 20.8532 28.6339C20.8059 28.6339 20.3803 28.6823 19.5764 28.7308C19.7025 28.7308 19.8286 28.7469 19.9547 28.7469C19.8286 28.7469 19.7025 28.7631 19.5764 28.7631C20.3803 28.8115 20.8059 28.86 20.8532 28.8761C21.7989 28.9892 22.5555 29.7643 22.6658 30.7493C22.6816 30.9108 22.7288 31.3629 22.7761 32.4126C22.8234 31.3629 22.8707 30.9108 22.9022 30.7493C23.0126 29.7643 23.7534 28.9892 24.7149 28.8761C24.7621 28.86 25.3138 28.7954 26.3541 28.7469C25.3138 28.6985 24.7621 28.6339 24.7149 28.6339C23.7534 28.5047 23.0126 27.7296 22.9022 26.7446Z" fill="#ED721D"/>
</g>
<defs>
<clipPath id="clip0">
<rect width="142" height="35" fill="white"/>
</clipPath>
</defs>
</svg>
