<svg width="50" height="42" viewBox="0 0 50 42" fill="none" xmlns="http://www.w3.org/2000/svg">
<path d="M18.1818 13.5074H18.2818V13.4074V1.25926C18.2818 0.894951 18.5764 0.6 18.9394 0.6H49.2424C49.6054 0.6 49.9 0.894951 49.9 1.25926C49.9 1.62357 49.6054 1.91852 49.2424 1.91852H45.4545H45.3545V2.01852V14.1667C45.3545 14.531 45.0599 14.8259 44.697 14.8259H38.6364H38.5364V14.9259V27.0741C38.5364 27.4384 38.2417 27.7333 37.8788 27.7333H31.8182H31.7182V27.8333V40.7407C31.7182 41.105 31.4236 41.4 31.0606 41.4H0.757576C0.394616 41.4 0.1 41.105 0.1 40.7407C0.1 40.3764 0.394616 40.0815 0.757576 40.0815H4.54545H4.64545V39.9815V27.0741C4.64545 26.7098 4.94007 26.4148 5.30303 26.4148H11.3636H11.4636V26.3148V14.1667C11.4636 13.8024 11.7583 13.5074 12.1212 13.5074H18.1818ZM6.06061 27.7333H5.96061V27.8333V39.9815V40.0815H6.06061H30.303H30.403V39.9815V27.8333V27.7333H30.303H6.06061ZM12.8788 14.8259H12.7788V14.9259V26.3148V26.4148H12.8788H37.1212H37.2212V26.3148V14.9259V14.8259H37.1212H12.8788ZM19.697 1.91852H19.597V2.01852V13.4074V13.5074H19.697H43.9394H44.0394V13.4074V2.01852V1.91852H43.9394H19.697Z" fill="#9C8679" stroke="#FBF9F6" stroke-width="0.2"/>
</svg>
