<svg width="39" height="43" viewBox="0 0 39 43" fill="none" xmlns="http://www.w3.org/2000/svg">
<path d="M30.3555 39.7006H33.0709V0.5L30.3555 3.3M30.3555 39.7006V3.3M30.3555 39.7006L16.7847 42.5M30.3555 39.7006L38.5 39.7005M30.3555 3.3L16.7847 0.5V42.5M30.3555 3.3L16.7868 0.501094H33.0709L30.3555 3.3ZM8.64234 39.7006H5.92751V0.5L8.64234 3.3M8.64234 39.7006V3.3M8.64234 39.7006L16.7846 39.7M8.64234 3.3H16.7846M8.64234 3.3L5.92857 0.501094H16.7846L16.7846 3.3M16.7847 42.5L16.7846 39.7M16.7846 3.3V39.7M16.7846 39.7L0.5 39.7005M20.5168 25.7011C20.5168 26.2807 20.0613 26.7505 19.4995 26.7505C18.9376 26.7505 18.4821 26.2807 18.4821 25.7011C18.4821 25.1215 18.9376 24.6516 19.4995 24.6516C20.0613 24.6516 20.5168 25.1215 20.5168 25.7011Z" stroke="#9C8679" stroke-miterlimit="10" stroke-linecap="round" stroke-linejoin="round"/>
</svg>
